<svg id="visual" viewBox="0 0 1000 100" width="1000" height="100" xmlns="http://www.w3.org/2000/svg" xmlns:xlink="http://www.w3.org/1999/xlink" version="1.1"><rect x="0" y="0" width="1000" height="100" fill="#001122"></rect><path d="M0 55L10.5 54.8C21 54.7 42 54.3 62.8 53.3C83.7 52.3 104.3 50.7 125.2 51.8C146 53 167 57 187.8 54.8C208.7 52.7 229.3 44.3 250.2 44.3C271 44.3 292 52.7 312.8 56.2C333.7 59.7 354.3 58.3 375.2 55.3C396 52.3 417 47.7 437.8 44.7C458.7 41.7 479.3 40.3 500.2 42.8C521 45.3 542 51.7 562.8 51.7C583.7 51.7 604.3 45.3 625.2 45.5C646 45.7 667 52.3 687.8 56.2C708.7 60 729.3 61 750.2 61.5C771 62 792 62 812.8 57.7C833.7 53.3 854.3 44.7 875.2 40.3C896 36 917 36 937.8 36.7C958.7 37.3 979.3 38.7 989.7 39.3L1000 40L1000 101L989.7 101C979.3 101 958.7 101 937.8 101C917 101 896 101 875.2 101C854.3 101 833.7 101 812.8 101C792 101 771 101 750.2 101C729.3 101 708.7 101 687.8 101C667 101 646 101 625.2 101C604.3 101 583.7 101 562.8 101C542 101 521 101 500.2 101C479.3 101 458.7 101 437.8 101C417 101 396 101 375.2 101C354.3 101 333.7 101 312.8 101C292 101 271 101 250.2 101C229.3 101 208.7 101 187.8 101C167 101 146 101 125.2 101C104.3 101 83.7 101 62.8 101C42 101 21 101 10.5 101L0 101Z" fill="#0722f7"></path><path d="M0 48L10.5 47.5C21 47 42 46 62.8 48.3C83.7 50.7 104.3 56.3 125.2 56.3C146 56.3 167 50.7 187.8 51.7C208.7 52.7 229.3 60.3 250.2 61.3C271 62.3 292 56.7 312.8 53.3C333.7 50 354.3 49 375.2 48C396 47 417 46 437.8 46.3C458.7 46.7 479.3 48.3 500.2 52.2C521 56 542 62 562.8 65C583.7 68 604.3 68 625.2 67.3C646 66.7 667 65.3 687.8 64.5C708.7 63.7 729.3 63.3 750.2 63.2C771 63 792 63 812.8 64.2C833.7 65.3 854.3 67.7 875.2 68.5C896 69.3 917 68.7 937.8 64.3C958.7 60 979.3 52 989.7 48L1000 44L1000 101L989.7 101C979.3 101 958.7 101 937.8 101C917 101 896 101 875.2 101C854.3 101 833.7 101 812.8 101C792 101 771 101 750.2 101C729.3 101 708.7 101 687.8 101C667 101 646 101 625.2 101C604.3 101 583.7 101 562.8 101C542 101 521 101 500.2 101C479.3 101 458.7 101 437.8 101C417 101 396 101 375.2 101C354.3 101 333.7 101 312.8 101C292 101 271 101 250.2 101C229.3 101 208.7 101 187.8 101C167 101 146 101 125.2 101C104.3 101 83.7 101 62.8 101C42 101 21 101 10.5 101L0 101Z" fill="#0047fd"></path><path d="M0 74L10.5 70.3C21 66.7 42 59.3 62.8 58C83.7 56.7 104.3 61.3 125.2 63.7C146 66 167 66 187.8 63.7C208.7 61.3 229.3 56.7 250.2 56.3C271 56 292 60 312.8 62.2C333.7 64.3 354.3 64.7 375.2 64.8C396 65 417 65 437.8 63.7C458.7 62.3 479.3 59.7 500.2 61.2C521 62.7 542 68.3 562.8 70.8C583.7 73.3 604.3 72.7 625.2 71.5C646 70.3 667 68.7 687.8 66.5C708.7 64.3 729.3 61.7 750.2 61.2C771 60.7 792 62.3 812.8 62.7C833.7 63 854.3 62 875.2 63.5C896 65 917 69 937.8 67.8C958.7 66.7 979.3 60.3 989.7 57.2L1000 54L1000 101L989.7 101C979.3 101 958.7 101 937.8 101C917 101 896 101 875.2 101C854.3 101 833.7 101 812.8 101C792 101 771 101 750.2 101C729.3 101 708.7 101 687.8 101C667 101 646 101 625.2 101C604.3 101 583.7 101 562.8 101C542 101 521 101 500.2 101C479.3 101 458.7 101 437.8 101C417 101 396 101 375.2 101C354.3 101 333.7 101 312.8 101C292 101 271 101 250.2 101C229.3 101 208.7 101 187.8 101C167 101 146 101 125.2 101C104.3 101 83.7 101 62.8 101C42 101 21 101 10.5 101L0 101Z" fill="#0060ff"></path><path d="M0 65L10.5 65.7C21 66.3 42 67.7 62.8 67.8C83.7 68 104.3 67 125.2 67.7C146 68.3 167 70.7 187.8 70C208.7 69.3 229.3 65.7 250.2 66.5C271 67.3 292 72.7 312.8 72.3C333.7 72 354.3 66 375.2 65.8C396 65.7 417 71.3 437.8 74.7C458.7 78 479.3 79 500.2 76.5C521 74 542 68 562.8 65.3C583.7 62.7 604.3 63.3 625.2 63.8C646 64.3 667 64.7 687.8 66.3C708.7 68 729.3 71 750.2 73.3C771 75.7 792 77.3 812.8 75.8C833.7 74.3 854.3 69.7 875.2 68.8C896 68 917 71 937.8 70.2C958.7 69.3 979.3 64.7 989.7 62.3L1000 60L1000 101L989.7 101C979.3 101 958.7 101 937.8 101C917 101 896 101 875.2 101C854.3 101 833.7 101 812.8 101C792 101 771 101 750.2 101C729.3 101 708.7 101 687.8 101C667 101 646 101 625.2 101C604.3 101 583.7 101 562.8 101C542 101 521 101 500.2 101C479.3 101 458.7 101 437.8 101C417 101 396 101 375.2 101C354.3 101 333.7 101 312.8 101C292 101 271 101 250.2 101C229.3 101 208.7 101 187.8 101C167 101 146 101 125.2 101C104.3 101 83.7 101 62.8 101C42 101 21 101 10.5 101L0 101Z" fill="#0076ff"></path><path d="M0 83L10.5 81.5C21 80 42 77 62.8 74.7C83.7 72.3 104.3 70.7 125.2 69.8C146 69 167 69 187.8 70.8C208.7 72.7 229.3 76.3 250.2 78.7C271 81 292 82 312.8 80.5C333.7 79 354.3 75 375.2 74C396 73 417 75 437.8 74.5C458.7 74 479.3 71 500.2 70.7C521 70.3 542 72.7 562.8 74C583.7 75.3 604.3 75.7 625.2 77C646 78.3 667 80.7 687.8 80C708.7 79.3 729.3 75.7 750.2 75.8C771 76 792 80 812.8 79.7C833.7 79.3 854.3 74.7 875.2 72.3C896 70 917 70 937.8 72.2C958.7 74.3 979.3 78.7 989.7 80.8L1000 83L1000 101L989.7 101C979.3 101 958.7 101 937.8 101C917 101 896 101 875.2 101C854.3 101 833.7 101 812.8 101C792 101 771 101 750.2 101C729.3 101 708.7 101 687.8 101C667 101 646 101 625.2 101C604.3 101 583.7 101 562.8 101C542 101 521 101 500.2 101C479.3 101 458.7 101 437.8 101C417 101 396 101 375.2 101C354.3 101 333.7 101 312.8 101C292 101 271 101 250.2 101C229.3 101 208.7 101 187.8 101C167 101 146 101 125.2 101C104.3 101 83.7 101 62.8 101C42 101 21 101 10.5 101L0 101Z" fill="#008aff"></path><path d="M0 86L10.5 86C21 86 42 86 62.8 85.8C83.7 85.7 104.3 85.3 125.2 84.7C146 84 167 83 187.8 83C208.7 83 229.3 84 250.2 85.2C271 86.3 292 87.7 312.8 88.3C333.7 89 354.3 89 375.2 87.5C396 86 417 83 437.8 82.5C458.7 82 479.3 84 500.2 83.3C521 82.7 542 79.3 562.8 79.7C583.7 80 604.3 84 625.2 84.8C646 85.7 667 83.3 687.8 82.3C708.7 81.3 729.3 81.7 750.2 81.2C771 80.7 792 79.3 812.8 78.7C833.7 78 854.3 78 875.2 78.5C896 79 917 80 937.8 79.8C958.7 79.7 979.3 78.3 989.7 77.7L1000 77L1000 101L989.7 101C979.3 101 958.7 101 937.8 101C917 101 896 101 875.2 101C854.3 101 833.7 101 812.8 101C792 101 771 101 750.2 101C729.3 101 708.7 101 687.8 101C667 101 646 101 625.2 101C604.3 101 583.7 101 562.8 101C542 101 521 101 500.2 101C479.3 101 458.7 101 437.8 101C417 101 396 101 375.2 101C354.3 101 333.7 101 312.8 101C292 101 271 101 250.2 101C229.3 101 208.7 101 187.8 101C167 101 146 101 125.2 101C104.3 101 83.7 101 62.8 101C42 101 21 101 10.5 101L0 101Z" fill="#239cff"></path><path d="M0 93L10.5 92.8C21 92.7 42 92.3 62.8 91.5C83.7 90.7 104.3 89.3 125.2 88.8C146 88.3 167 88.7 187.8 88.3C208.7 88 229.3 87 250.2 86.7C271 86.3 292 86.7 312.8 87.7C333.7 88.7 354.3 90.3 375.2 91.3C396 92.3 417 92.7 437.8 92.8C458.7 93 479.3 93 500.2 92.2C521 91.3 542 89.7 562.8 89.5C583.7 89.3 604.3 90.7 625.2 90.7C646 90.7 667 89.3 687.8 89.3C708.7 89.3 729.3 90.7 750.2 91.3C771 92 792 92 812.8 91.2C833.7 90.3 854.3 88.7 875.2 87.7C896 86.7 917 86.3 937.8 86.8C958.7 87.3 979.3 88.7 989.7 89.3L1000 90L1000 101L989.7 101C979.3 101 958.7 101 937.8 101C917 101 896 101 875.2 101C854.3 101 833.7 101 812.8 101C792 101 771 101 750.2 101C729.3 101 708.7 101 687.8 101C667 101 646 101 625.2 101C604.3 101 583.7 101 562.8 101C542 101 521 101 500.2 101C479.3 101 458.7 101 437.8 101C417 101 396 101 375.2 101C354.3 101 333.7 101 312.8 101C292 101 271 101 250.2 101C229.3 101 208.7 101 187.8 101C167 101 146 101 125.2 101C104.3 101 83.7 101 62.8 101C42 101 21 101 10.5 101L0 101Z" fill="#49adff"></path></svg>