<svg id="visual" viewBox="0 0 1920 540" width="1920" height="540" xmlns="http://www.w3.org/2000/svg" xmlns:xlink="http://www.w3.org/1999/xlink" version="1.1"><rect x="0" y="0" width="1920" height="540" fill="#001122"></rect><path d="M0 160L22.8 180C45.7 200 91.3 240 137 263.8C182.7 287.7 228.3 295.3 274 276.3C319.7 257.3 365.3 211.7 411.2 187.3C457 163 503 160 548.8 160.7C594.7 161.3 640.3 165.7 686 173.2C731.7 180.7 777.3 191.3 823 200.8C868.7 210.3 914.3 218.7 960 216.3C1005.7 214 1051.3 201 1097 198.2C1142.7 195.3 1188.3 202.7 1234 206C1279.7 209.3 1325.3 208.7 1371.2 220.7C1417 232.7 1463 257.3 1508.8 262C1554.7 266.7 1600.3 251.3 1646 249C1691.7 246.7 1737.3 257.3 1783 262.8C1828.7 268.3 1874.3 268.7 1897.2 268.8L1920 269L1920 0L1897.2 0C1874.3 0 1828.7 0 1783 0C1737.3 0 1691.7 0 1646 0C1600.3 0 1554.7 0 1508.8 0C1463 0 1417 0 1371.2 0C1325.3 0 1279.7 0 1234 0C1188.3 0 1142.7 0 1097 0C1051.3 0 1005.7 0 960 0C914.3 0 868.7 0 823 0C777.3 0 731.7 0 686 0C640.3 0 594.7 0 548.8 0C503 0 457 0 411.2 0C365.3 0 319.7 0 274 0C228.3 0 182.7 0 137 0C91.3 0 45.7 0 22.8 0L0 0Z" fill="#0722f7"></path><path d="M0 258L22.8 254.3C45.7 250.7 91.3 243.3 137 226.5C182.7 209.7 228.3 183.3 274 175.7C319.7 168 365.3 179 411.2 186.2C457 193.3 503 196.7 548.8 193.3C594.7 190 640.3 180 686 171.8C731.7 163.7 777.3 157.3 823 159.7C868.7 162 914.3 173 960 190.8C1005.7 208.7 1051.3 233.3 1097 234C1142.7 234.7 1188.3 211.3 1234 201.8C1279.7 192.3 1325.3 196.7 1371.2 188.8C1417 181 1463 161 1508.8 167C1554.7 173 1600.3 205 1646 207.5C1691.7 210 1737.3 183 1783 171.5C1828.7 160 1874.3 164 1897.2 166L1920 168L1920 0L1897.2 0C1874.3 0 1828.7 0 1783 0C1737.3 0 1691.7 0 1646 0C1600.3 0 1554.7 0 1508.8 0C1463 0 1417 0 1371.2 0C1325.3 0 1279.7 0 1234 0C1188.3 0 1142.7 0 1097 0C1051.3 0 1005.7 0 960 0C914.3 0 868.7 0 823 0C777.3 0 731.7 0 686 0C640.3 0 594.7 0 548.8 0C503 0 457 0 411.2 0C365.3 0 319.7 0 274 0C228.3 0 182.7 0 137 0C91.3 0 45.7 0 22.8 0L0 0Z" fill="#0047fd"></path><path d="M0 143L22.8 152.7C45.7 162.3 91.3 181.7 137 188.2C182.7 194.7 228.3 188.3 274 190.8C319.7 193.3 365.3 204.7 411.2 195.7C457 186.7 503 157.3 548.8 142.2C594.7 127 640.3 126 686 141.8C731.7 157.7 777.3 190.3 823 204.3C868.7 218.3 914.3 213.7 960 202.5C1005.7 191.3 1051.3 173.7 1097 171.5C1142.7 169.3 1188.3 182.7 1234 183.2C1279.7 183.7 1325.3 171.3 1371.2 174.7C1417 178 1463 197 1508.8 207.5C1554.7 218 1600.3 220 1646 215.5C1691.7 211 1737.3 200 1783 190.8C1828.7 181.7 1874.3 174.3 1897.2 170.7L1920 167L1920 0L1897.2 0C1874.3 0 1828.7 0 1783 0C1737.3 0 1691.7 0 1646 0C1600.3 0 1554.7 0 1508.8 0C1463 0 1417 0 1371.2 0C1325.3 0 1279.7 0 1234 0C1188.3 0 1142.7 0 1097 0C1051.3 0 1005.7 0 960 0C914.3 0 868.7 0 823 0C777.3 0 731.7 0 686 0C640.3 0 594.7 0 548.8 0C503 0 457 0 411.2 0C365.3 0 319.7 0 274 0C228.3 0 182.7 0 137 0C91.3 0 45.7 0 22.8 0L0 0Z" fill="#0060ff"></path><path d="M0 163L22.8 162.2C45.7 161.3 91.3 159.7 137 155C182.7 150.3 228.3 142.7 274 135C319.7 127.3 365.3 119.7 411.2 128C457 136.3 503 160.7 548.8 161.7C594.7 162.7 640.3 140.3 686 131C731.7 121.7 777.3 125.3 823 128.3C868.7 131.3 914.3 133.7 960 136.7C1005.7 139.7 1051.3 143.3 1097 145C1142.7 146.7 1188.3 146.3 1234 147.8C1279.7 149.3 1325.3 152.7 1371.2 149.2C1417 145.7 1463 135.3 1508.8 127C1554.7 118.7 1600.3 112.3 1646 116.5C1691.7 120.7 1737.3 135.3 1783 146C1828.7 156.7 1874.3 163.3 1897.2 166.7L1920 170L1920 0L1897.2 0C1874.3 0 1828.7 0 1783 0C1737.3 0 1691.7 0 1646 0C1600.3 0 1554.7 0 1508.8 0C1463 0 1417 0 1371.2 0C1325.3 0 1279.7 0 1234 0C1188.3 0 1142.7 0 1097 0C1051.3 0 1005.7 0 960 0C914.3 0 868.7 0 823 0C777.3 0 731.7 0 686 0C640.3 0 594.7 0 548.8 0C503 0 457 0 411.2 0C365.3 0 319.7 0 274 0C228.3 0 182.7 0 137 0C91.3 0 45.7 0 22.8 0L0 0Z" fill="#0076ff"></path><path d="M0 104L22.8 109.7C45.7 115.3 91.3 126.7 137 121.2C182.7 115.7 228.3 93.3 274 93.5C319.7 93.7 365.3 116.3 411.2 118.3C457 120.3 503 101.7 548.8 97.7C594.7 93.7 640.3 104.3 686 109.7C731.7 115 777.3 115 823 116.3C868.7 117.7 914.3 120.3 960 121.3C1005.7 122.3 1051.3 121.7 1097 124.8C1142.7 128 1188.3 135 1234 131.7C1279.7 128.3 1325.3 114.7 1371.2 108.3C1417 102 1463 103 1508.8 109.2C1554.7 115.3 1600.3 126.7 1646 132C1691.7 137.3 1737.3 136.7 1783 125.5C1828.7 114.3 1874.3 92.7 1897.2 81.8L1920 71L1920 0L1897.2 0C1874.3 0 1828.7 0 1783 0C1737.3 0 1691.7 0 1646 0C1600.3 0 1554.7 0 1508.8 0C1463 0 1417 0 1371.2 0C1325.3 0 1279.7 0 1234 0C1188.3 0 1142.7 0 1097 0C1051.3 0 1005.7 0 960 0C914.3 0 868.7 0 823 0C777.3 0 731.7 0 686 0C640.3 0 594.7 0 548.8 0C503 0 457 0 411.2 0C365.3 0 319.7 0 274 0C228.3 0 182.7 0 137 0C91.3 0 45.7 0 22.8 0L0 0Z" fill="#008aff"></path><path d="M0 94L22.8 87C45.7 80 91.3 66 137 66.2C182.7 66.3 228.3 80.7 274 83.3C319.7 86 365.3 77 411.2 77.5C457 78 503 88 548.8 87C594.7 86 640.3 74 686 74.5C731.7 75 777.3 88 823 86.7C868.7 85.3 914.3 69.7 960 69.8C1005.7 70 1051.3 86 1097 89.3C1142.7 92.7 1188.3 83.3 1234 82.7C1279.7 82 1325.3 90 1371.2 91C1417 92 1463 86 1508.8 87.3C1554.7 88.7 1600.3 97.3 1646 95C1691.7 92.7 1737.3 79.3 1783 70.7C1828.7 62 1874.3 58 1897.2 56L1920 54L1920 0L1897.2 0C1874.3 0 1828.7 0 1783 0C1737.3 0 1691.7 0 1646 0C1600.3 0 1554.7 0 1508.8 0C1463 0 1417 0 1371.2 0C1325.3 0 1279.7 0 1234 0C1188.3 0 1142.7 0 1097 0C1051.3 0 1005.7 0 960 0C914.3 0 868.7 0 823 0C777.3 0 731.7 0 686 0C640.3 0 594.7 0 548.8 0C503 0 457 0 411.2 0C365.3 0 319.7 0 274 0C228.3 0 182.7 0 137 0C91.3 0 45.7 0 22.8 0L0 0Z" fill="#239cff"></path><path d="M0 63L22.8 58.8C45.7 54.7 91.3 46.3 137 41.8C182.7 37.3 228.3 36.7 274 35.5C319.7 34.3 365.3 32.7 411.2 35.3C457 38 503 45 548.8 43.7C594.7 42.3 640.3 32.7 686 28.3C731.7 24 777.3 25 823 25C868.7 25 914.3 24 960 24.3C1005.7 24.7 1051.3 26.3 1097 28.2C1142.7 30 1188.3 32 1234 34.2C1279.7 36.3 1325.3 38.7 1371.2 40.2C1417 41.7 1463 42.3 1508.8 41.8C1554.7 41.3 1600.3 39.7 1646 43.3C1691.7 47 1737.3 56 1783 58.7C1828.7 61.3 1874.3 57.7 1897.2 55.8L1920 54L1920 0L1897.2 0C1874.3 0 1828.7 0 1783 0C1737.3 0 1691.7 0 1646 0C1600.3 0 1554.7 0 1508.8 0C1463 0 1417 0 1371.2 0C1325.3 0 1279.7 0 1234 0C1188.3 0 1142.7 0 1097 0C1051.3 0 1005.7 0 960 0C914.3 0 868.7 0 823 0C777.3 0 731.7 0 686 0C640.3 0 594.7 0 548.8 0C503 0 457 0 411.2 0C365.3 0 319.7 0 274 0C228.3 0 182.7 0 137 0C91.3 0 45.7 0 22.8 0L0 0Z" fill="#49adff"></path></svg>