<svg id="visual" viewBox="0 0 1920 150" width="1920" height="150" xmlns="http://www.w3.org/2000/svg" xmlns:xlink="http://www.w3.org/1999/xlink" version="1.1"><rect x="0" y="0" width="1920" height="150" fill="#001122"></rect><path d="M0 104L22.8 98.5C45.7 93 91.3 82 137 75.5C182.7 69 228.3 67 274 72.3C319.7 77.7 365.3 90.3 411.2 97C457 103.7 503 104.3 548.8 104C594.7 103.7 640.3 102.3 686 100.3C731.7 98.3 777.3 95.7 823 93.2C868.7 90.7 914.3 88.3 960 88.8C1005.7 89.3 1051.3 92.7 1097 93.3C1142.7 94 1188.3 92 1234 91.2C1279.7 90.3 1325.3 90.7 1371.2 87.3C1417 84 1463 77 1508.8 75.7C1554.7 74.3 1600.3 78.7 1646 79.3C1691.7 80 1737.3 77 1783 75.5C1828.7 74 1874.3 74 1897.2 74L1920 74L1920 151L1897.2 151C1874.3 151 1828.7 151 1783 151C1737.3 151 1691.7 151 1646 151C1600.3 151 1554.7 151 1508.8 151C1463 151 1417 151 1371.2 151C1325.3 151 1279.7 151 1234 151C1188.3 151 1142.7 151 1097 151C1051.3 151 1005.7 151 960 151C914.3 151 868.7 151 823 151C777.3 151 731.7 151 686 151C640.3 151 594.7 151 548.8 151C503 151 457 151 411.2 151C365.3 151 319.7 151 274 151C228.3 151 182.7 151 137 151C91.3 151 45.7 151 22.8 151L0 151Z" fill="#0722f7"></path><path d="M0 77L22.8 78C45.7 79 91.3 81 137 85.7C182.7 90.3 228.3 97.7 274 99.8C319.7 102 365.3 99 411.2 97C457 95 503 94 548.8 94.8C594.7 95.7 640.3 98.3 686 100.7C731.7 103 777.3 105 823 104.3C868.7 103.7 914.3 100.3 960 95.3C1005.7 90.3 1051.3 83.7 1097 83.5C1142.7 83.3 1188.3 89.7 1234 92.3C1279.7 95 1325.3 94 1371.2 96.2C1417 98.3 1463 103.7 1508.8 102C1554.7 100.3 1600.3 91.7 1646 91C1691.7 90.3 1737.3 97.7 1783 100.8C1828.7 104 1874.3 103 1897.2 102.5L1920 102L1920 151L1897.2 151C1874.3 151 1828.7 151 1783 151C1737.3 151 1691.7 151 1646 151C1600.3 151 1554.7 151 1508.8 151C1463 151 1417 151 1371.2 151C1325.3 151 1279.7 151 1234 151C1188.3 151 1142.7 151 1097 151C1051.3 151 1005.7 151 960 151C914.3 151 868.7 151 823 151C777.3 151 731.7 151 686 151C640.3 151 594.7 151 548.8 151C503 151 457 151 411.2 151C365.3 151 319.7 151 274 151C228.3 151 182.7 151 137 151C91.3 151 45.7 151 22.8 151L0 151Z" fill="#0047fd"></path><path d="M0 109L22.8 106.3C45.7 103.7 91.3 98.3 137 96.5C182.7 94.7 228.3 96.3 274 95.7C319.7 95 365.3 92 411.2 94.5C457 97 503 105 548.8 109.2C594.7 113.3 640.3 113.7 686 109.3C731.7 105 777.3 96 823 92.2C868.7 88.3 914.3 89.7 960 92.7C1005.7 95.7 1051.3 100.3 1097 100.8C1142.7 101.3 1188.3 97.7 1234 97.7C1279.7 97.7 1325.3 101.3 1371.2 100.5C1417 99.7 1463 94.3 1508.8 91.3C1554.7 88.3 1600.3 87.7 1646 88.8C1691.7 90 1737.3 93 1783 95.5C1828.7 98 1874.3 100 1897.2 101L1920 102L1920 151L1897.2 151C1874.3 151 1828.7 151 1783 151C1737.3 151 1691.7 151 1646 151C1600.3 151 1554.7 151 1508.8 151C1463 151 1417 151 1371.2 151C1325.3 151 1279.7 151 1234 151C1188.3 151 1142.7 151 1097 151C1051.3 151 1005.7 151 960 151C914.3 151 868.7 151 823 151C777.3 151 731.7 151 686 151C640.3 151 594.7 151 548.8 151C503 151 457 151 411.2 151C365.3 151 319.7 151 274 151C228.3 151 182.7 151 137 151C91.3 151 45.7 151 22.8 151L0 151Z" fill="#0060ff"></path><path d="M0 103L22.8 103.3C45.7 103.7 91.3 104.3 137 105.7C182.7 107 228.3 109 274 111.2C319.7 113.3 365.3 115.7 411.2 113.3C457 111 503 104 548.8 103.7C594.7 103.3 640.3 109.7 686 112.3C731.7 115 777.3 114 823 113.2C868.7 112.3 914.3 111.7 960 110.8C1005.7 110 1051.3 109 1097 108.5C1142.7 108 1188.3 108 1234 107.5C1279.7 107 1325.3 106 1371.2 107C1417 108 1463 111 1508.8 113.3C1554.7 115.7 1600.3 117.3 1646 116.2C1691.7 115 1737.3 111 1783 108.2C1828.7 105.3 1874.3 103.7 1897.2 102.8L1920 102L1920 151L1897.2 151C1874.3 151 1828.7 151 1783 151C1737.3 151 1691.7 151 1646 151C1600.3 151 1554.7 151 1508.8 151C1463 151 1417 151 1371.2 151C1325.3 151 1279.7 151 1234 151C1188.3 151 1142.7 151 1097 151C1051.3 151 1005.7 151 960 151C914.3 151 868.7 151 823 151C777.3 151 731.7 151 686 151C640.3 151 594.7 151 548.8 151C503 151 457 151 411.2 151C365.3 151 319.7 151 274 151C228.3 151 182.7 151 137 151C91.3 151 45.7 151 22.8 151L0 151Z" fill="#0076ff"></path><path d="M0 120L22.8 118.3C45.7 116.7 91.3 113.3 137 114.8C182.7 116.3 228.3 122.7 274 122.7C319.7 122.7 365.3 116.3 411.2 115.8C457 115.3 503 120.7 548.8 121.8C594.7 123 640.3 120 686 118.5C731.7 117 777.3 117 823 116.7C868.7 116.3 914.3 115.7 960 115.3C1005.7 115 1051.3 115 1097 114C1142.7 113 1188.3 111 1234 112C1279.7 113 1325.3 117 1371.2 118.8C1417 120.7 1463 120.3 1508.8 118.5C1554.7 116.7 1600.3 113.3 1646 111.8C1691.7 110.3 1737.3 110.7 1783 113.8C1828.7 117 1874.3 123 1897.2 126L1920 129L1920 151L1897.2 151C1874.3 151 1828.7 151 1783 151C1737.3 151 1691.7 151 1646 151C1600.3 151 1554.7 151 1508.8 151C1463 151 1417 151 1371.2 151C1325.3 151 1279.7 151 1234 151C1188.3 151 1142.7 151 1097 151C1051.3 151 1005.7 151 960 151C914.3 151 868.7 151 823 151C777.3 151 731.7 151 686 151C640.3 151 594.7 151 548.8 151C503 151 457 151 411.2 151C365.3 151 319.7 151 274 151C228.3 151 182.7 151 137 151C91.3 151 45.7 151 22.8 151L0 151Z" fill="#008aff"></path><path d="M0 123L22.8 124.8C45.7 126.7 91.3 130.3 137 130.2C182.7 130 228.3 126 274 125.3C319.7 124.7 365.3 127.3 411.2 127.3C457 127.3 503 124.7 548.8 125C594.7 125.3 640.3 128.7 686 128.5C731.7 128.3 777.3 124.7 823 125C868.7 125.3 914.3 129.7 960 129.5C1005.7 129.3 1051.3 124.7 1097 123.7C1142.7 122.7 1188.3 125.3 1234 125.7C1279.7 126 1325.3 124 1371.2 123.7C1417 123.3 1463 124.7 1508.8 124.2C1554.7 123.7 1600.3 121.3 1646 122C1691.7 122.7 1737.3 126.3 1783 128.8C1828.7 131.3 1874.3 132.7 1897.2 133.3L1920 134L1920 151L1897.2 151C1874.3 151 1828.7 151 1783 151C1737.3 151 1691.7 151 1646 151C1600.3 151 1554.7 151 1508.8 151C1463 151 1417 151 1371.2 151C1325.3 151 1279.7 151 1234 151C1188.3 151 1142.7 151 1097 151C1051.3 151 1005.7 151 960 151C914.3 151 868.7 151 823 151C777.3 151 731.7 151 686 151C640.3 151 594.7 151 548.8 151C503 151 457 151 411.2 151C365.3 151 319.7 151 274 151C228.3 151 182.7 151 137 151C91.3 151 45.7 151 22.8 151L0 151Z" fill="#239cff"></path><path d="M0 131L22.8 132.2C45.7 133.3 91.3 135.7 137 137C182.7 138.3 228.3 138.7 274 139C319.7 139.3 365.3 139.7 411.2 138.8C457 138 503 136 548.8 136.3C594.7 136.7 640.3 139.3 686 140.5C731.7 141.7 777.3 141.3 823 141.3C868.7 141.3 914.3 141.7 960 141.7C1005.7 141.7 1051.3 141.3 1097 140.8C1142.7 140.3 1188.3 139.7 1234 139C1279.7 138.3 1325.3 137.7 1371.2 137.3C1417 137 1463 137 1508.8 137.2C1554.7 137.3 1600.3 137.7 1646 136.7C1691.7 135.7 1737.3 133.3 1783 132.7C1828.7 132 1874.3 133 1897.2 133.5L1920 134L1920 151L1897.2 151C1874.3 151 1828.7 151 1783 151C1737.3 151 1691.7 151 1646 151C1600.3 151 1554.7 151 1508.8 151C1463 151 1417 151 1371.2 151C1325.3 151 1279.7 151 1234 151C1188.3 151 1142.7 151 1097 151C1051.3 151 1005.7 151 960 151C914.3 151 868.7 151 823 151C777.3 151 731.7 151 686 151C640.3 151 594.7 151 548.8 151C503 151 457 151 411.2 151C365.3 151 319.7 151 274 151C228.3 151 182.7 151 137 151C91.3 151 45.7 151 22.8 151L0 151Z" fill="#49adff"></path></svg>