<svg id="visual" viewBox="0 0 900 450" width="900" height="450" xmlns="http://www.w3.org/2000/svg" xmlns:xlink="http://www.w3.org/1999/xlink" version="1.1"><rect x="0" y="0" width="900" height="450" fill="#001122"></rect><path d="M0 259L11.5 255.3C23 251.7 46 244.3 69 241.3C92 238.3 115 239.7 138.2 240.3C161.3 241 184.7 241 207.8 246C231 251 254 261 277 258.8C300 256.7 323 242.3 346 240.3C369 238.3 392 248.7 415.2 260.8C438.3 273 461.7 287 484.8 284.3C508 281.7 531 262.3 554 254.2C577 246 600 249 623 252.3C646 255.7 669 259.3 692.2 266.5C715.3 273.7 738.7 284.3 761.8 280.7C785 277 808 259 831 256.3C854 253.7 877 266.3 888.5 272.7L900 279L900 451L888.5 451C877 451 854 451 831 451C808 451 785 451 761.8 451C738.7 451 715.3 451 692.2 451C669 451 646 451 623 451C600 451 577 451 554 451C531 451 508 451 484.8 451C461.7 451 438.3 451 415.2 451C392 451 369 451 346 451C323 451 300 451 277 451C254 451 231 451 207.8 451C184.7 451 161.3 451 138.2 451C115 451 92 451 69 451C46 451 23 451 11.5 451L0 451Z" fill="#0722f7"></path><path d="M0 289L11.5 287.5C23 286 46 283 69 280.2C92 277.3 115 274.7 138.2 277.8C161.3 281 184.7 290 207.8 292.5C231 295 254 291 277 292.5C300 294 323 301 346 302.5C369 304 392 300 415.2 297.2C438.3 294.3 461.7 292.7 484.8 291.3C508 290 531 289 554 290.3C577 291.7 600 295.3 623 295C646 294.7 669 290.3 692.2 285.7C715.3 281 738.7 276 761.8 280.5C785 285 808 299 831 299.5C854 300 877 287 888.5 280.5L900 274L900 451L888.5 451C877 451 854 451 831 451C808 451 785 451 761.8 451C738.7 451 715.3 451 692.2 451C669 451 646 451 623 451C600 451 577 451 554 451C531 451 508 451 484.8 451C461.7 451 438.3 451 415.2 451C392 451 369 451 346 451C323 451 300 451 277 451C254 451 231 451 207.8 451C184.7 451 161.3 451 138.2 451C115 451 92 451 69 451C46 451 23 451 11.5 451L0 451Z" fill="#0047fd"></path><path d="M0 336L11.5 334.7C23 333.3 46 330.7 69 326C92 321.3 115 314.7 138.2 317C161.3 319.3 184.7 330.7 207.8 331C231 331.3 254 320.7 277 313.2C300 305.7 323 301.3 346 306C369 310.7 392 324.3 415.2 326.2C438.3 328 461.7 318 484.8 310C508 302 531 296 554 296.5C577 297 600 304 623 305.5C646 307 669 303 692.2 298.2C715.3 293.3 738.7 287.7 761.8 287.3C785 287 808 292 831 295C854 298 877 299 888.5 299.5L900 300L900 451L888.5 451C877 451 854 451 831 451C808 451 785 451 761.8 451C738.7 451 715.3 451 692.2 451C669 451 646 451 623 451C600 451 577 451 554 451C531 451 508 451 484.8 451C461.7 451 438.3 451 415.2 451C392 451 369 451 346 451C323 451 300 451 277 451C254 451 231 451 207.8 451C184.7 451 161.3 451 138.2 451C115 451 92 451 69 451C46 451 23 451 11.5 451L0 451Z" fill="#0060ff"></path><path d="M0 363L11.5 362.5C23 362 46 361 69 354C92 347 115 334 138.2 333C161.3 332 184.7 343 207.8 342.8C231 342.7 254 331.3 277 325C300 318.7 323 317.3 346 322.5C369 327.7 392 339.3 415.2 343.7C438.3 348 461.7 345 484.8 338.5C508 332 531 322 554 316.7C577 311.3 600 310.7 623 319.5C646 328.3 669 346.7 692.2 353.5C715.3 360.3 738.7 355.7 761.8 355.7C785 355.7 808 360.3 831 355.7C854 351 877 337 888.5 330L900 323L900 451L888.5 451C877 451 854 451 831 451C808 451 785 451 761.8 451C738.7 451 715.3 451 692.2 451C669 451 646 451 623 451C600 451 577 451 554 451C531 451 508 451 484.8 451C461.7 451 438.3 451 415.2 451C392 451 369 451 346 451C323 451 300 451 277 451C254 451 231 451 207.8 451C184.7 451 161.3 451 138.2 451C115 451 92 451 69 451C46 451 23 451 11.5 451L0 451Z" fill="#0076ff"></path><path d="M0 388L11.5 388.2C23 388.3 46 388.7 69 383.7C92 378.7 115 368.3 138.2 362.8C161.3 357.3 184.7 356.7 207.8 360C231 363.3 254 370.7 277 368C300 365.3 323 352.7 346 353.3C369 354 392 368 415.2 370.8C438.3 373.7 461.7 365.3 484.8 364.5C508 363.7 531 370.3 554 371.5C577 372.7 600 368.3 623 370C646 371.7 669 379.3 692.2 383C715.3 386.7 738.7 386.3 761.8 381.7C785 377 808 368 831 366.7C854 365.3 877 371.7 888.5 374.8L900 378L900 451L888.5 451C877 451 854 451 831 451C808 451 785 451 761.8 451C738.7 451 715.3 451 692.2 451C669 451 646 451 623 451C600 451 577 451 554 451C531 451 508 451 484.8 451C461.7 451 438.3 451 415.2 451C392 451 369 451 346 451C323 451 300 451 277 451C254 451 231 451 207.8 451C184.7 451 161.3 451 138.2 451C115 451 92 451 69 451C46 451 23 451 11.5 451L0 451Z" fill="#008aff"></path><path d="M0 398L11.5 393.3C23 388.7 46 379.3 69 378.5C92 377.7 115 385.3 138.2 387.5C161.3 389.7 184.7 386.3 207.8 383.5C231 380.7 254 378.3 277 379.5C300 380.7 323 385.3 346 389.8C369 394.3 392 398.7 415.2 401.8C438.3 405 461.7 407 484.8 407.8C508 408.7 531 408.3 554 403.5C577 398.7 600 389.3 623 386.5C646 383.7 669 387.3 692.2 391.8C715.3 396.3 738.7 401.7 761.8 403.5C785 405.3 808 403.7 831 400.3C854 397 877 392 888.5 389.5L900 387L900 451L888.5 451C877 451 854 451 831 451C808 451 785 451 761.8 451C738.7 451 715.3 451 692.2 451C669 451 646 451 623 451C600 451 577 451 554 451C531 451 508 451 484.8 451C461.7 451 438.3 451 415.2 451C392 451 369 451 346 451C323 451 300 451 277 451C254 451 231 451 207.8 451C184.7 451 161.3 451 138.2 451C115 451 92 451 69 451C46 451 23 451 11.5 451L0 451Z" fill="#239cff"></path><path d="M0 408L11.5 406.7C23 405.3 46 402.7 69 405.2C92 407.7 115 415.3 138.2 418.3C161.3 421.3 184.7 419.7 207.8 416.2C231 412.7 254 407.3 277 408.2C300 409 323 416 346 416.7C369 417.3 392 411.7 415.2 407.8C438.3 404 461.7 402 484.8 403.8C508 405.7 531 411.3 554 415.5C577 419.7 600 422.3 623 419.8C646 417.3 669 409.7 692.2 410.3C715.3 411 738.7 420 761.8 423.8C785 427.7 808 426.3 831 422.8C854 419.3 877 413.7 888.5 410.8L900 408L900 451L888.5 451C877 451 854 451 831 451C808 451 785 451 761.8 451C738.7 451 715.3 451 692.2 451C669 451 646 451 623 451C600 451 577 451 554 451C531 451 508 451 484.8 451C461.7 451 438.3 451 415.2 451C392 451 369 451 346 451C323 451 300 451 277 451C254 451 231 451 207.8 451C184.7 451 161.3 451 138.2 451C115 451 92 451 69 451C46 451 23 451 11.5 451L0 451Z" fill="#49adff"></path></svg>