<svg id="visual" viewBox="0 0 1000 450" width="1000" height="450" xmlns="http://www.w3.org/2000/svg" xmlns:xlink="http://www.w3.org/1999/xlink" version="1.1"><rect x="0" y="0" width="1000" height="450" fill="#001122"></rect><path d="M0 259L12.8 255.3C25.7 251.7 51.3 244.3 77 241.3C102.7 238.3 128.3 239.7 154 240.3C179.7 241 205.3 241 231 246C256.7 251 282.3 261 308 258.8C333.7 256.7 359.3 242.3 385 240.3C410.7 238.3 436.3 248.7 461.8 260.8C487.3 273 512.7 287 538.2 284.3C563.7 281.7 589.3 262.3 615 254.2C640.7 246 666.3 249 692 252.3C717.7 255.7 743.3 259.3 769 266.5C794.7 273.7 820.3 284.3 846 280.7C871.7 277 897.3 259 923 256.3C948.7 253.7 974.3 266.3 987.2 272.7L1000 279L1000 451L987.2 451C974.3 451 948.7 451 923 451C897.3 451 871.7 451 846 451C820.3 451 794.7 451 769 451C743.3 451 717.7 451 692 451C666.3 451 640.7 451 615 451C589.3 451 563.7 451 538.2 451C512.7 451 487.3 451 461.8 451C436.3 451 410.7 451 385 451C359.3 451 333.7 451 308 451C282.3 451 256.7 451 231 451C205.3 451 179.7 451 154 451C128.3 451 102.7 451 77 451C51.3 451 25.7 451 12.8 451L0 451Z" fill="#0722f7"></path><path d="M0 289L12.8 287.5C25.7 286 51.3 283 77 280.2C102.7 277.3 128.3 274.7 154 277.8C179.7 281 205.3 290 231 292.5C256.7 295 282.3 291 308 292.5C333.7 294 359.3 301 385 302.5C410.7 304 436.3 300 461.8 297.2C487.3 294.3 512.7 292.7 538.2 291.3C563.7 290 589.3 289 615 290.3C640.7 291.7 666.3 295.3 692 295C717.7 294.7 743.3 290.3 769 285.7C794.7 281 820.3 276 846 280.5C871.7 285 897.3 299 923 299.5C948.7 300 974.3 287 987.2 280.5L1000 274L1000 451L987.2 451C974.3 451 948.7 451 923 451C897.3 451 871.7 451 846 451C820.3 451 794.7 451 769 451C743.3 451 717.7 451 692 451C666.3 451 640.7 451 615 451C589.3 451 563.7 451 538.2 451C512.7 451 487.3 451 461.8 451C436.3 451 410.7 451 385 451C359.3 451 333.7 451 308 451C282.3 451 256.7 451 231 451C205.3 451 179.7 451 154 451C128.3 451 102.7 451 77 451C51.3 451 25.7 451 12.8 451L0 451Z" fill="#0047fd"></path><path d="M0 336L12.8 334.7C25.7 333.3 51.3 330.7 77 326C102.7 321.3 128.3 314.7 154 317C179.7 319.3 205.3 330.7 231 331C256.7 331.3 282.3 320.7 308 313.2C333.7 305.7 359.3 301.3 385 306C410.7 310.7 436.3 324.3 461.8 326.2C487.3 328 512.7 318 538.2 310C563.7 302 589.3 296 615 296.5C640.7 297 666.3 304 692 305.5C717.7 307 743.3 303 769 298.2C794.7 293.3 820.3 287.7 846 287.3C871.7 287 897.3 292 923 295C948.7 298 974.3 299 987.2 299.5L1000 300L1000 451L987.2 451C974.3 451 948.7 451 923 451C897.3 451 871.7 451 846 451C820.3 451 794.7 451 769 451C743.3 451 717.7 451 692 451C666.3 451 640.7 451 615 451C589.3 451 563.7 451 538.2 451C512.7 451 487.3 451 461.8 451C436.3 451 410.7 451 385 451C359.3 451 333.7 451 308 451C282.3 451 256.7 451 231 451C205.3 451 179.7 451 154 451C128.3 451 102.7 451 77 451C51.3 451 25.7 451 12.8 451L0 451Z" fill="#0060ff"></path><path d="M0 363L12.8 362.5C25.7 362 51.3 361 77 354C102.7 347 128.3 334 154 333C179.7 332 205.3 343 231 342.8C256.7 342.7 282.3 331.3 308 325C333.7 318.7 359.3 317.3 385 322.5C410.7 327.7 436.3 339.3 461.8 343.7C487.3 348 512.7 345 538.2 338.5C563.7 332 589.3 322 615 316.7C640.7 311.3 666.3 310.7 692 319.5C717.7 328.3 743.3 346.7 769 353.5C794.7 360.3 820.3 355.7 846 355.7C871.7 355.7 897.3 360.3 923 355.7C948.7 351 974.3 337 987.2 330L1000 323L1000 451L987.2 451C974.3 451 948.7 451 923 451C897.3 451 871.7 451 846 451C820.3 451 794.7 451 769 451C743.3 451 717.7 451 692 451C666.3 451 640.7 451 615 451C589.3 451 563.7 451 538.2 451C512.7 451 487.3 451 461.8 451C436.3 451 410.7 451 385 451C359.3 451 333.7 451 308 451C282.3 451 256.7 451 231 451C205.3 451 179.7 451 154 451C128.3 451 102.7 451 77 451C51.3 451 25.7 451 12.8 451L0 451Z" fill="#0076ff"></path><path d="M0 388L12.8 388.2C25.7 388.3 51.3 388.7 77 383.7C102.7 378.7 128.3 368.3 154 362.8C179.7 357.3 205.3 356.7 231 360C256.7 363.3 282.3 370.7 308 368C333.7 365.3 359.3 352.7 385 353.3C410.7 354 436.3 368 461.8 370.8C487.3 373.7 512.7 365.3 538.2 364.5C563.7 363.7 589.3 370.3 615 371.5C640.7 372.7 666.3 368.3 692 370C717.7 371.7 743.3 379.3 769 383C794.7 386.7 820.3 386.3 846 381.7C871.7 377 897.3 368 923 366.7C948.7 365.3 974.3 371.7 987.2 374.8L1000 378L1000 451L987.2 451C974.3 451 948.7 451 923 451C897.3 451 871.7 451 846 451C820.3 451 794.7 451 769 451C743.3 451 717.7 451 692 451C666.3 451 640.7 451 615 451C589.3 451 563.7 451 538.2 451C512.7 451 487.3 451 461.8 451C436.3 451 410.7 451 385 451C359.3 451 333.7 451 308 451C282.3 451 256.7 451 231 451C205.3 451 179.7 451 154 451C128.3 451 102.7 451 77 451C51.3 451 25.7 451 12.8 451L0 451Z" fill="#008aff"></path><path d="M0 398L12.8 393.3C25.7 388.7 51.3 379.3 77 378.5C102.7 377.7 128.3 385.3 154 387.5C179.7 389.7 205.3 386.3 231 383.5C256.7 380.7 282.3 378.3 308 379.5C333.7 380.7 359.3 385.3 385 389.8C410.7 394.3 436.3 398.7 461.8 401.8C487.3 405 512.7 407 538.2 407.8C563.7 408.7 589.3 408.3 615 403.5C640.7 398.7 666.3 389.3 692 386.5C717.7 383.7 743.3 387.3 769 391.8C794.7 396.3 820.3 401.7 846 403.5C871.7 405.3 897.3 403.7 923 400.3C948.7 397 974.3 392 987.2 389.5L1000 387L1000 451L987.2 451C974.3 451 948.7 451 923 451C897.3 451 871.7 451 846 451C820.3 451 794.7 451 769 451C743.3 451 717.7 451 692 451C666.3 451 640.7 451 615 451C589.3 451 563.7 451 538.2 451C512.7 451 487.3 451 461.8 451C436.3 451 410.7 451 385 451C359.3 451 333.7 451 308 451C282.3 451 256.7 451 231 451C205.3 451 179.7 451 154 451C128.3 451 102.7 451 77 451C51.3 451 25.7 451 12.8 451L0 451Z" fill="#239cff"></path><path d="M0 408L12.8 406.7C25.7 405.3 51.3 402.7 77 405.2C102.7 407.7 128.3 415.3 154 418.3C179.7 421.3 205.3 419.7 231 416.2C256.7 412.7 282.3 407.3 308 408.2C333.7 409 359.3 416 385 416.7C410.7 417.3 436.3 411.7 461.8 407.8C487.3 404 512.7 402 538.2 403.8C563.7 405.7 589.3 411.3 615 415.5C640.7 419.7 666.3 422.3 692 419.8C717.7 417.3 743.3 409.7 769 410.3C794.7 411 820.3 420 846 423.8C871.7 427.7 897.3 426.3 923 422.8C948.7 419.3 974.3 413.7 987.2 410.8L1000 408L1000 451L987.2 451C974.3 451 948.7 451 923 451C897.3 451 871.7 451 846 451C820.3 451 794.7 451 769 451C743.3 451 717.7 451 692 451C666.3 451 640.7 451 615 451C589.3 451 563.7 451 538.2 451C512.7 451 487.3 451 461.8 451C436.3 451 410.7 451 385 451C359.3 451 333.7 451 308 451C282.3 451 256.7 451 231 451C205.3 451 179.7 451 154 451C128.3 451 102.7 451 77 451C51.3 451 25.7 451 12.8 451L0 451Z" fill="#49adff"></path></svg>