<svg id="visual" viewBox="0 0 1920 150" width="1920" height="150" xmlns="http://www.w3.org/2000/svg" xmlns:xlink="http://www.w3.org/1999/xlink" version="1.1"><rect x="0" y="0" width="1920" height="150" fill="#001122"></rect><path d="M0 85L22.8 77C45.7 69 91.3 53 137 43.5C182.7 34 228.3 31 274 38.7C319.7 46.3 365.3 64.7 411.2 74.3C457 84 503 85 548.8 84.7C594.7 84.3 640.3 82.7 686 79.7C731.7 76.7 777.3 72.3 823 68.5C868.7 64.7 914.3 61.3 960 62.3C1005.7 63.3 1051.3 68.7 1097 69.8C1142.7 71 1188.3 68 1234 66.7C1279.7 65.3 1325.3 65.7 1371.2 61C1417 56.3 1463 46.7 1508.8 44.8C1554.7 43 1600.3 49 1646 49.8C1691.7 50.7 1737.3 46.3 1783 44.2C1828.7 42 1874.3 42 1897.2 42L1920 42L1920 151L1897.2 151C1874.3 151 1828.7 151 1783 151C1737.3 151 1691.7 151 1646 151C1600.3 151 1554.7 151 1508.8 151C1463 151 1417 151 1371.2 151C1325.3 151 1279.7 151 1234 151C1188.3 151 1142.7 151 1097 151C1051.3 151 1005.7 151 960 151C914.3 151 868.7 151 823 151C777.3 151 731.7 151 686 151C640.3 151 594.7 151 548.8 151C503 151 457 151 411.2 151C365.3 151 319.7 151 274 151C228.3 151 182.7 151 137 151C91.3 151 45.7 151 22.8 151L0 151Z" fill="#0722f7"></path><path d="M0 46L22.8 47.5C45.7 49 91.3 52 137 58.7C182.7 65.3 228.3 75.7 274 78.7C319.7 81.7 365.3 77.3 411.2 74.5C457 71.7 503 70.3 548.8 71.7C594.7 73 640.3 77 686 80.3C731.7 83.7 777.3 86.3 823 85.3C868.7 84.3 914.3 79.7 960 72.5C1005.7 65.3 1051.3 55.7 1097 55.5C1142.7 55.3 1188.3 64.7 1234 68.5C1279.7 72.3 1325.3 70.7 1371.2 73.7C1417 76.7 1463 84.3 1508.8 82C1554.7 79.7 1600.3 67.3 1646 66.5C1691.7 65.7 1737.3 76.3 1783 80.8C1828.7 85.3 1874.3 83.7 1897.2 82.8L1920 82L1920 151L1897.2 151C1874.3 151 1828.7 151 1783 151C1737.3 151 1691.7 151 1646 151C1600.3 151 1554.7 151 1508.8 151C1463 151 1417 151 1371.2 151C1325.3 151 1279.7 151 1234 151C1188.3 151 1142.7 151 1097 151C1051.3 151 1005.7 151 960 151C914.3 151 868.7 151 823 151C777.3 151 731.7 151 686 151C640.3 151 594.7 151 548.8 151C503 151 457 151 411.2 151C365.3 151 319.7 151 274 151C228.3 151 182.7 151 137 151C91.3 151 45.7 151 22.8 151L0 151Z" fill="#0047fd"></path><path d="M0 92L22.8 88.2C45.7 84.3 91.3 76.7 137 74C182.7 71.3 228.3 73.7 274 72.7C319.7 71.7 365.3 67.3 411.2 71C457 74.7 503 86.3 548.8 92.3C594.7 98.3 640.3 98.7 686 92.3C731.7 86 777.3 73 823 67.5C868.7 62 914.3 64 960 68.5C1005.7 73 1051.3 80 1097 80.8C1142.7 81.7 1188.3 76.3 1234 76.2C1279.7 76 1325.3 81 1371.2 79.7C1417 78.3 1463 70.7 1508.8 66.5C1554.7 62.3 1600.3 61.7 1646 63.3C1691.7 65 1737.3 69 1783 72.5C1828.7 76 1874.3 79 1897.2 80.5L1920 82L1920 151L1897.2 151C1874.3 151 1828.7 151 1783 151C1737.3 151 1691.7 151 1646 151C1600.3 151 1554.7 151 1508.8 151C1463 151 1417 151 1371.2 151C1325.3 151 1279.7 151 1234 151C1188.3 151 1142.7 151 1097 151C1051.3 151 1005.7 151 960 151C914.3 151 868.7 151 823 151C777.3 151 731.7 151 686 151C640.3 151 594.7 151 548.8 151C503 151 457 151 411.2 151C365.3 151 319.7 151 274 151C228.3 151 182.7 151 137 151C91.3 151 45.7 151 22.8 151L0 151Z" fill="#0060ff"></path><path d="M0 84L22.8 84.3C45.7 84.7 91.3 85.3 137 87.2C182.7 89 228.3 92 274 95C319.7 98 365.3 101 411.2 97.7C457 94.3 503 84.7 548.8 84.3C594.7 84 640.3 93 686 96.7C731.7 100.3 777.3 98.7 823 97.5C868.7 96.3 914.3 95.7 960 94.5C1005.7 93.3 1051.3 91.7 1097 91C1142.7 90.3 1188.3 90.7 1234 90.2C1279.7 89.7 1325.3 88.3 1371.2 89.7C1417 91 1463 95 1508.8 98.3C1554.7 101.7 1600.3 104.3 1646 102.7C1691.7 101 1737.3 95 1783 90.7C1828.7 86.3 1874.3 83.7 1897.2 82.3L1920 81L1920 151L1897.2 151C1874.3 151 1828.7 151 1783 151C1737.3 151 1691.7 151 1646 151C1600.3 151 1554.7 151 1508.8 151C1463 151 1417 151 1371.2 151C1325.3 151 1279.7 151 1234 151C1188.3 151 1142.7 151 1097 151C1051.3 151 1005.7 151 960 151C914.3 151 868.7 151 823 151C777.3 151 731.7 151 686 151C640.3 151 594.7 151 548.8 151C503 151 457 151 411.2 151C365.3 151 319.7 151 274 151C228.3 151 182.7 151 137 151C91.3 151 45.7 151 22.8 151L0 151Z" fill="#0076ff"></path><path d="M0 107L22.8 104.8C45.7 102.7 91.3 98.3 137 100.5C182.7 102.7 228.3 111.3 274 111.2C319.7 111 365.3 102 411.2 101.3C457 100.7 503 108.3 548.8 110C594.7 111.7 640.3 107.3 686 105.2C731.7 103 777.3 103 823 102.5C868.7 102 914.3 101 960 100.7C1005.7 100.3 1051.3 100.7 1097 99.3C1142.7 98 1188.3 95 1234 96.3C1279.7 97.7 1325.3 103.3 1371.2 105.8C1417 108.3 1463 107.7 1508.8 105.2C1554.7 102.7 1600.3 98.3 1646 96.3C1691.7 94.3 1737.3 94.7 1783 99.2C1828.7 103.7 1874.3 112.3 1897.2 116.7L1920 121L1920 151L1897.2 151C1874.3 151 1828.7 151 1783 151C1737.3 151 1691.7 151 1646 151C1600.3 151 1554.7 151 1508.8 151C1463 151 1417 151 1371.2 151C1325.3 151 1279.7 151 1234 151C1188.3 151 1142.7 151 1097 151C1051.3 151 1005.7 151 960 151C914.3 151 868.7 151 823 151C777.3 151 731.7 151 686 151C640.3 151 594.7 151 548.8 151C503 151 457 151 411.2 151C365.3 151 319.7 151 274 151C228.3 151 182.7 151 137 151C91.3 151 45.7 151 22.8 151L0 151Z" fill="#008aff"></path><path d="M0 111L22.8 113.8C45.7 116.7 91.3 122.3 137 122.3C182.7 122.3 228.3 116.7 274 115.7C319.7 114.7 365.3 118.3 411.2 118.2C457 118 503 114 548.8 114.3C594.7 114.7 640.3 119.3 686 119C731.7 118.7 777.3 113.3 823 113.8C868.7 114.3 914.3 120.7 960 120.7C1005.7 120.7 1051.3 114.3 1097 113C1142.7 111.7 1188.3 115.3 1234 115.7C1279.7 116 1325.3 113 1371.2 112.7C1417 112.3 1463 114.7 1508.8 114C1554.7 113.3 1600.3 109.7 1646 110.5C1691.7 111.3 1737.3 116.7 1783 120.2C1828.7 123.7 1874.3 125.3 1897.2 126.2L1920 127L1920 151L1897.2 151C1874.3 151 1828.7 151 1783 151C1737.3 151 1691.7 151 1646 151C1600.3 151 1554.7 151 1508.8 151C1463 151 1417 151 1371.2 151C1325.3 151 1279.7 151 1234 151C1188.3 151 1142.7 151 1097 151C1051.3 151 1005.7 151 960 151C914.3 151 868.7 151 823 151C777.3 151 731.7 151 686 151C640.3 151 594.7 151 548.8 151C503 151 457 151 411.2 151C365.3 151 319.7 151 274 151C228.3 151 182.7 151 137 151C91.3 151 45.7 151 22.8 151L0 151Z" fill="#239cff"></path><path d="M0 124L22.8 125.5C45.7 127 91.3 130 137 131.7C182.7 133.3 228.3 133.7 274 134.2C319.7 134.7 365.3 135.3 411.2 134.3C457 133.3 503 130.7 548.8 131.2C594.7 131.7 640.3 135.3 686 137C731.7 138.7 777.3 138.3 823 138.3C868.7 138.3 914.3 138.7 960 138.5C1005.7 138.3 1051.3 137.7 1097 137C1142.7 136.3 1188.3 135.7 1234 134.8C1279.7 134 1325.3 133 1371.2 132.5C1417 132 1463 132 1508.8 132.3C1554.7 132.7 1600.3 133.3 1646 131.8C1691.7 130.3 1737.3 126.7 1783 125.5C1828.7 124.3 1874.3 125.7 1897.2 126.3L1920 127L1920 151L1897.2 151C1874.3 151 1828.7 151 1783 151C1737.3 151 1691.7 151 1646 151C1600.3 151 1554.7 151 1508.8 151C1463 151 1417 151 1371.2 151C1325.3 151 1279.7 151 1234 151C1188.3 151 1142.7 151 1097 151C1051.3 151 1005.7 151 960 151C914.3 151 868.7 151 823 151C777.3 151 731.7 151 686 151C640.3 151 594.7 151 548.8 151C503 151 457 151 411.2 151C365.3 151 319.7 151 274 151C228.3 151 182.7 151 137 151C91.3 151 45.7 151 22.8 151L0 151Z" fill="#49adff"></path></svg>