<svg id="visual" viewBox="0 0 1920 700" width="1920" height="700" xmlns="http://www.w3.org/2000/svg" xmlns:xlink="http://www.w3.org/1999/xlink" version="1.1"><rect x="0" y="0" width="1920" height="700" fill="#001122"></rect><path d="M0 207L22.8 233C45.7 259 91.3 311 137 342C182.7 373 228.3 383 274 358.5C319.7 334 365.3 275 411.2 243.5C457 212 503 208 548.8 208.8C594.7 209.7 640.3 215.3 686 225C731.7 234.7 777.3 248.3 823 260.7C868.7 273 914.3 284 960 281.2C1005.7 278.3 1051.3 261.7 1097 257.8C1142.7 254 1188.3 263 1234 267.2C1279.7 271.3 1325.3 270.7 1371.2 286.2C1417 301.7 1463 333.3 1508.8 339.3C1554.7 345.3 1600.3 325.7 1646 322.7C1691.7 319.7 1737.3 333.3 1783 340.3C1828.7 347.3 1874.3 347.7 1897.2 347.8L1920 348L1920 0L1897.2 0C1874.3 0 1828.7 0 1783 0C1737.3 0 1691.7 0 1646 0C1600.3 0 1554.7 0 1508.8 0C1463 0 1417 0 1371.2 0C1325.3 0 1279.7 0 1234 0C1188.3 0 1142.7 0 1097 0C1051.3 0 1005.7 0 960 0C914.3 0 868.7 0 823 0C777.3 0 731.7 0 686 0C640.3 0 594.7 0 548.8 0C503 0 457 0 411.2 0C365.3 0 319.7 0 274 0C228.3 0 182.7 0 137 0C91.3 0 45.7 0 22.8 0L0 0Z" fill="#0722f7"></path><path d="M0 334L22.8 329.3C45.7 324.7 91.3 315.3 137 293.7C182.7 272 228.3 238 274 228C319.7 218 365.3 232 411.2 241.3C457 250.7 503 255.3 548.8 251.2C594.7 247 640.3 234 686 223.3C731.7 212.7 777.3 204.3 823 207.3C868.7 210.3 914.3 224.7 960 247.8C1005.7 271 1051.3 303 1097 303.8C1142.7 304.7 1188.3 274.3 1234 262C1279.7 249.7 1325.3 255.3 1371.2 245.3C1417 235.3 1463 209.7 1508.8 217.5C1554.7 225.3 1600.3 266.7 1646 269.8C1691.7 273 1737.3 238 1783 223C1828.7 208 1874.3 213 1897.2 215.5L1920 218L1920 0L1897.2 0C1874.3 0 1828.7 0 1783 0C1737.3 0 1691.7 0 1646 0C1600.3 0 1554.7 0 1508.8 0C1463 0 1417 0 1371.2 0C1325.3 0 1279.7 0 1234 0C1188.3 0 1142.7 0 1097 0C1051.3 0 1005.7 0 960 0C914.3 0 868.7 0 823 0C777.3 0 731.7 0 686 0C640.3 0 594.7 0 548.8 0C503 0 457 0 411.2 0C365.3 0 319.7 0 274 0C228.3 0 182.7 0 137 0C91.3 0 45.7 0 22.8 0L0 0Z" fill="#0047fd"></path><path d="M0 185L22.8 197.5C45.7 210 91.3 235 137 243.5C182.7 252 228.3 244 274 247.3C319.7 250.7 365.3 265.3 411.2 253.7C457 242 503 204 548.8 184.3C594.7 164.7 640.3 163.3 686 184C731.7 204.7 777.3 247.3 823 265.5C868.7 283.7 914.3 277.3 960 262.8C1005.7 248.3 1051.3 225.7 1097 222.8C1142.7 220 1188.3 237 1234 237.5C1279.7 238 1325.3 222 1371.2 226.3C1417 230.7 1463 255.3 1508.8 269C1554.7 282.7 1600.3 285.3 1646 279.7C1691.7 274 1737.3 260 1783 248C1828.7 236 1874.3 226 1897.2 221L1920 216L1920 0L1897.2 0C1874.3 0 1828.7 0 1783 0C1737.3 0 1691.7 0 1646 0C1600.3 0 1554.7 0 1508.8 0C1463 0 1417 0 1371.2 0C1325.3 0 1279.7 0 1234 0C1188.3 0 1142.7 0 1097 0C1051.3 0 1005.7 0 960 0C914.3 0 868.7 0 823 0C777.3 0 731.7 0 686 0C640.3 0 594.7 0 548.8 0C503 0 457 0 411.2 0C365.3 0 319.7 0 274 0C228.3 0 182.7 0 137 0C91.3 0 45.7 0 22.8 0L0 0Z" fill="#0060ff"></path><path d="M0 212L22.8 210.8C45.7 209.7 91.3 207.3 137 201.2C182.7 195 228.3 185 274 175.2C319.7 165.3 365.3 155.7 411.2 166.5C457 177.3 503 208.7 548.8 210C594.7 211.3 640.3 182.7 686 170.5C731.7 158.3 777.3 162.7 823 166.5C868.7 170.3 914.3 173.7 960 177.5C1005.7 181.3 1051.3 185.7 1097 187.7C1142.7 189.7 1188.3 189.3 1234 191.3C1279.7 193.3 1325.3 197.7 1371.2 193.2C1417 188.7 1463 175.3 1508.8 164.5C1554.7 153.7 1600.3 145.3 1646 150.8C1691.7 156.3 1737.3 175.7 1783 189.5C1828.7 203.3 1874.3 211.7 1897.2 215.8L1920 220L1920 0L1897.2 0C1874.3 0 1828.7 0 1783 0C1737.3 0 1691.7 0 1646 0C1600.3 0 1554.7 0 1508.8 0C1463 0 1417 0 1371.2 0C1325.3 0 1279.7 0 1234 0C1188.3 0 1142.7 0 1097 0C1051.3 0 1005.7 0 960 0C914.3 0 868.7 0 823 0C777.3 0 731.7 0 686 0C640.3 0 594.7 0 548.8 0C503 0 457 0 411.2 0C365.3 0 319.7 0 274 0C228.3 0 182.7 0 137 0C91.3 0 45.7 0 22.8 0L0 0Z" fill="#0076ff"></path><path d="M0 135L22.8 142.3C45.7 149.7 91.3 164.3 137 157.3C182.7 150.3 228.3 121.7 274 121.8C319.7 122 365.3 151 411.2 153.5C457 156 503 132 548.8 127C594.7 122 640.3 136 686 142.8C731.7 149.7 777.3 149.3 823 150.8C868.7 152.3 914.3 155.7 960 157C1005.7 158.3 1051.3 157.7 1097 161.8C1142.7 166 1188.3 175 1234 170.7C1279.7 166.3 1325.3 148.7 1371.2 140.5C1417 132.3 1463 133.7 1508.8 141.7C1554.7 149.7 1600.3 164.3 1646 171.3C1691.7 178.3 1737.3 177.7 1783 163.2C1828.7 148.7 1874.3 120.3 1897.2 106.2L1920 92L1920 0L1897.2 0C1874.3 0 1828.7 0 1783 0C1737.3 0 1691.7 0 1646 0C1600.3 0 1554.7 0 1508.8 0C1463 0 1417 0 1371.2 0C1325.3 0 1279.7 0 1234 0C1188.3 0 1142.7 0 1097 0C1051.3 0 1005.7 0 960 0C914.3 0 868.7 0 823 0C777.3 0 731.7 0 686 0C640.3 0 594.7 0 548.8 0C503 0 457 0 411.2 0C365.3 0 319.7 0 274 0C228.3 0 182.7 0 137 0C91.3 0 45.7 0 22.8 0L0 0Z" fill="#008aff"></path><path d="M0 122L22.8 113C45.7 104 91.3 86 137 86.3C182.7 86.7 228.3 105.3 274 108.7C319.7 112 365.3 100 411.2 100.5C457 101 503 114 548.8 112.8C594.7 111.7 640.3 96.3 686 97.2C731.7 98 777.3 115 823 113.2C868.7 111.3 914.3 90.7 960 90.8C1005.7 91 1051.3 112 1097 116.3C1142.7 120.7 1188.3 108.3 1234 107.3C1279.7 106.3 1325.3 116.7 1371.2 118C1417 119.3 1463 111.7 1508.8 113.5C1554.7 115.3 1600.3 126.7 1646 123.7C1691.7 120.7 1737.3 103.3 1783 92C1828.7 80.7 1874.3 75.3 1897.2 72.7L1920 70L1920 0L1897.2 0C1874.3 0 1828.7 0 1783 0C1737.3 0 1691.7 0 1646 0C1600.3 0 1554.7 0 1508.8 0C1463 0 1417 0 1371.2 0C1325.3 0 1279.7 0 1234 0C1188.3 0 1142.7 0 1097 0C1051.3 0 1005.7 0 960 0C914.3 0 868.7 0 823 0C777.3 0 731.7 0 686 0C640.3 0 594.7 0 548.8 0C503 0 457 0 411.2 0C365.3 0 319.7 0 274 0C228.3 0 182.7 0 137 0C91.3 0 45.7 0 22.8 0L0 0Z" fill="#239cff"></path><path d="M0 82L22.8 76.7C45.7 71.3 91.3 60.7 137 54.8C182.7 49 228.3 48 274 46.5C319.7 45 365.3 43 411.2 46.5C457 50 503 59 548.8 57.2C594.7 55.3 640.3 42.7 686 37C731.7 31.3 777.3 32.7 823 32.7C868.7 32.7 914.3 31.3 960 31.8C1005.7 32.3 1051.3 34.7 1097 37C1142.7 39.3 1188.3 41.7 1234 44.5C1279.7 47.3 1325.3 50.7 1371.2 52.7C1417 54.7 1463 55.3 1508.8 54.5C1554.7 53.7 1600.3 51.3 1646 56C1691.7 60.7 1737.3 72.3 1783 75.8C1828.7 79.3 1874.3 74.7 1897.2 72.3L1920 70L1920 0L1897.2 0C1874.3 0 1828.7 0 1783 0C1737.3 0 1691.7 0 1646 0C1600.3 0 1554.7 0 1508.8 0C1463 0 1417 0 1371.2 0C1325.3 0 1279.7 0 1234 0C1188.3 0 1142.7 0 1097 0C1051.3 0 1005.7 0 960 0C914.3 0 868.7 0 823 0C777.3 0 731.7 0 686 0C640.3 0 594.7 0 548.8 0C503 0 457 0 411.2 0C365.3 0 319.7 0 274 0C228.3 0 182.7 0 137 0C91.3 0 45.7 0 22.8 0L0 0Z" fill="#49adff"></path></svg>