<svg id="visual" viewBox="0 0 1920 100" width="1920" height="100" xmlns="http://www.w3.org/2000/svg" xmlns:xlink="http://www.w3.org/1999/xlink" version="1.1"><rect x="0" y="0" width="1920" height="100" fill="#001122"></rect><path d="M0 55L20 54.8C40 54.7 80 54.3 120 53.3C160 52.3 200 50.7 240 51.8C280 53 320 57 360 54.8C400 52.7 440 44.3 480 44.3C520 44.3 560 52.7 600 56.2C640 59.7 680 58.3 720 55.3C760 52.3 800 47.7 840 44.7C880 41.7 920 40.3 960 42.8C1000 45.3 1040 51.7 1080 51.7C1120 51.7 1160 45.3 1200 45.5C1240 45.7 1280 52.3 1320 56.2C1360 60 1400 61 1440 61.5C1480 62 1520 62 1560 57.7C1600 53.3 1640 44.7 1680 40.3C1720 36 1760 36 1800 36.7C1840 37.3 1880 38.7 1900 39.3L1920 40L1920 101L1900 101C1880 101 1840 101 1800 101C1760 101 1720 101 1680 101C1640 101 1600 101 1560 101C1520 101 1480 101 1440 101C1400 101 1360 101 1320 101C1280 101 1240 101 1200 101C1160 101 1120 101 1080 101C1040 101 1000 101 960 101C920 101 880 101 840 101C800 101 760 101 720 101C680 101 640 101 600 101C560 101 520 101 480 101C440 101 400 101 360 101C320 101 280 101 240 101C200 101 160 101 120 101C80 101 40 101 20 101L0 101Z" fill="#0722f7"></path><path d="M0 48L20 47.5C40 47 80 46 120 48.3C160 50.7 200 56.3 240 56.3C280 56.3 320 50.7 360 51.7C400 52.7 440 60.3 480 61.3C520 62.3 560 56.7 600 53.3C640 50 680 49 720 48C760 47 800 46 840 46.3C880 46.7 920 48.3 960 52.2C1000 56 1040 62 1080 65C1120 68 1160 68 1200 67.3C1240 66.7 1280 65.3 1320 64.5C1360 63.7 1400 63.3 1440 63.2C1480 63 1520 63 1560 64.2C1600 65.3 1640 67.7 1680 68.5C1720 69.3 1760 68.7 1800 64.3C1840 60 1880 52 1900 48L1920 44L1920 101L1900 101C1880 101 1840 101 1800 101C1760 101 1720 101 1680 101C1640 101 1600 101 1560 101C1520 101 1480 101 1440 101C1400 101 1360 101 1320 101C1280 101 1240 101 1200 101C1160 101 1120 101 1080 101C1040 101 1000 101 960 101C920 101 880 101 840 101C800 101 760 101 720 101C680 101 640 101 600 101C560 101 520 101 480 101C440 101 400 101 360 101C320 101 280 101 240 101C200 101 160 101 120 101C80 101 40 101 20 101L0 101Z" fill="#0047fd"></path><path d="M0 74L20 70.3C40 66.7 80 59.3 120 58C160 56.7 200 61.3 240 63.7C280 66 320 66 360 63.7C400 61.3 440 56.7 480 56.3C520 56 560 60 600 62.2C640 64.3 680 64.7 720 64.8C760 65 800 65 840 63.7C880 62.3 920 59.7 960 61.2C1000 62.7 1040 68.3 1080 70.8C1120 73.3 1160 72.7 1200 71.5C1240 70.3 1280 68.7 1320 66.5C1360 64.3 1400 61.7 1440 61.2C1480 60.7 1520 62.3 1560 62.7C1600 63 1640 62 1680 63.5C1720 65 1760 69 1800 67.8C1840 66.7 1880 60.3 1900 57.2L1920 54L1920 101L1900 101C1880 101 1840 101 1800 101C1760 101 1720 101 1680 101C1640 101 1600 101 1560 101C1520 101 1480 101 1440 101C1400 101 1360 101 1320 101C1280 101 1240 101 1200 101C1160 101 1120 101 1080 101C1040 101 1000 101 960 101C920 101 880 101 840 101C800 101 760 101 720 101C680 101 640 101 600 101C560 101 520 101 480 101C440 101 400 101 360 101C320 101 280 101 240 101C200 101 160 101 120 101C80 101 40 101 20 101L0 101Z" fill="#0060ff"></path><path d="M0 65L20 65.7C40 66.3 80 67.7 120 67.8C160 68 200 67 240 67.7C280 68.3 320 70.7 360 70C400 69.3 440 65.7 480 66.5C520 67.3 560 72.7 600 72.3C640 72 680 66 720 65.8C760 65.7 800 71.3 840 74.7C880 78 920 79 960 76.5C1000 74 1040 68 1080 65.3C1120 62.7 1160 63.3 1200 63.8C1240 64.3 1280 64.7 1320 66.3C1360 68 1400 71 1440 73.3C1480 75.7 1520 77.3 1560 75.8C1600 74.3 1640 69.7 1680 68.8C1720 68 1760 71 1800 70.2C1840 69.3 1880 64.7 1900 62.3L1920 60L1920 101L1900 101C1880 101 1840 101 1800 101C1760 101 1720 101 1680 101C1640 101 1600 101 1560 101C1520 101 1480 101 1440 101C1400 101 1360 101 1320 101C1280 101 1240 101 1200 101C1160 101 1120 101 1080 101C1040 101 1000 101 960 101C920 101 880 101 840 101C800 101 760 101 720 101C680 101 640 101 600 101C560 101 520 101 480 101C440 101 400 101 360 101C320 101 280 101 240 101C200 101 160 101 120 101C80 101 40 101 20 101L0 101Z" fill="#0076ff"></path><path d="M0 83L20 81.5C40 80 80 77 120 74.7C160 72.3 200 70.7 240 69.8C280 69 320 69 360 70.8C400 72.7 440 76.3 480 78.7C520 81 560 82 600 80.5C640 79 680 75 720 74C760 73 800 75 840 74.5C880 74 920 71 960 70.7C1000 70.3 1040 72.7 1080 74C1120 75.3 1160 75.7 1200 77C1240 78.3 1280 80.7 1320 80C1360 79.3 1400 75.7 1440 75.8C1480 76 1520 80 1560 79.7C1600 79.3 1640 74.7 1680 72.3C1720 70 1760 70 1800 72.2C1840 74.3 1880 78.7 1900 80.8L1920 83L1920 101L1900 101C1880 101 1840 101 1800 101C1760 101 1720 101 1680 101C1640 101 1600 101 1560 101C1520 101 1480 101 1440 101C1400 101 1360 101 1320 101C1280 101 1240 101 1200 101C1160 101 1120 101 1080 101C1040 101 1000 101 960 101C920 101 880 101 840 101C800 101 760 101 720 101C680 101 640 101 600 101C560 101 520 101 480 101C440 101 400 101 360 101C320 101 280 101 240 101C200 101 160 101 120 101C80 101 40 101 20 101L0 101Z" fill="#008aff"></path><path d="M0 86L20 86C40 86 80 86 120 85.8C160 85.7 200 85.3 240 84.7C280 84 320 83 360 83C400 83 440 84 480 85.2C520 86.3 560 87.7 600 88.3C640 89 680 89 720 87.5C760 86 800 83 840 82.5C880 82 920 84 960 83.3C1000 82.7 1040 79.3 1080 79.7C1120 80 1160 84 1200 84.8C1240 85.7 1280 83.3 1320 82.3C1360 81.3 1400 81.7 1440 81.2C1480 80.7 1520 79.3 1560 78.7C1600 78 1640 78 1680 78.5C1720 79 1760 80 1800 79.8C1840 79.7 1880 78.3 1900 77.7L1920 77L1920 101L1900 101C1880 101 1840 101 1800 101C1760 101 1720 101 1680 101C1640 101 1600 101 1560 101C1520 101 1480 101 1440 101C1400 101 1360 101 1320 101C1280 101 1240 101 1200 101C1160 101 1120 101 1080 101C1040 101 1000 101 960 101C920 101 880 101 840 101C800 101 760 101 720 101C680 101 640 101 600 101C560 101 520 101 480 101C440 101 400 101 360 101C320 101 280 101 240 101C200 101 160 101 120 101C80 101 40 101 20 101L0 101Z" fill="#239cff"></path><path d="M0 93L20 92.8C40 92.7 80 92.3 120 91.5C160 90.7 200 89.3 240 88.8C280 88.3 320 88.7 360 88.3C400 88 440 87 480 86.7C520 86.3 560 86.7 600 87.7C640 88.7 680 90.3 720 91.3C760 92.3 800 92.7 840 92.8C880 93 920 93 960 92.2C1000 91.3 1040 89.7 1080 89.5C1120 89.3 1160 90.7 1200 90.7C1240 90.7 1280 89.3 1320 89.3C1360 89.3 1400 90.7 1440 91.3C1480 92 1520 92 1560 91.2C1600 90.3 1640 88.7 1680 87.7C1720 86.7 1760 86.3 1800 86.8C1840 87.3 1880 88.7 1900 89.3L1920 90L1920 101L1900 101C1880 101 1840 101 1800 101C1760 101 1720 101 1680 101C1640 101 1600 101 1560 101C1520 101 1480 101 1440 101C1400 101 1360 101 1320 101C1280 101 1240 101 1200 101C1160 101 1120 101 1080 101C1040 101 1000 101 960 101C920 101 880 101 840 101C800 101 760 101 720 101C680 101 640 101 600 101C560 101 520 101 480 101C440 101 400 101 360 101C320 101 280 101 240 101C200 101 160 101 120 101C80 101 40 101 20 101L0 101Z" fill="#49adff"></path></svg>