<svg id="visual" viewBox="0 0 1920 1080" width="1920" height="1080" xmlns="http://www.w3.org/2000/svg" xmlns:xlink="http://www.w3.org/1999/xlink" version="1.1"><path d="M0 44L45.7 58.5C91.3 73 182.7 102 274.2 105.7C365.7 109.3 457.3 87.7 548.8 89.3C640.3 91 731.7 116 823 130.3C914.3 144.7 1005.7 148.3 1097 148.3C1188.3 148.3 1279.7 144.7 1371.2 139.3C1462.7 134 1554.3 127 1645.8 125.3C1737.3 123.7 1828.7 127.3 1874.3 129.2L1920 131L1920 0L1874.3 0C1828.7 0 1737.3 0 1645.8 0C1554.3 0 1462.7 0 1371.2 0C1279.7 0 1188.3 0 1097 0C1005.7 0 914.3 0 823 0C731.7 0 640.3 0 548.8 0C457.3 0 365.7 0 274.2 0C182.7 0 91.3 0 45.7 0L0 0Z" fill="#6198ff"></path><path d="M0 152L45.7 162.8C91.3 173.7 182.7 195.3 274.2 197.2C365.7 199 457.3 181 548.8 179.2C640.3 177.3 731.7 191.7 823 211.5C914.3 231.3 1005.7 256.7 1097 256.7C1188.3 256.7 1279.7 231.3 1371.2 215.2C1462.7 199 1554.3 192 1645.8 199.2C1737.3 206.3 1828.7 227.7 1874.3 238.3L1920 249L1920 129L1874.3 127.2C1828.7 125.3 1737.3 121.7 1645.8 123.3C1554.3 125 1462.7 132 1371.2 137.3C1279.7 142.7 1188.3 146.3 1097 146.3C1005.7 146.3 914.3 142.7 823 128.3C731.7 114 640.3 89 548.8 87.3C457.3 85.7 365.7 107.3 274.2 103.7C182.7 100 91.3 71 45.7 56.5L0 42Z" fill="#4385ff"></path><path d="M0 303L45.7 373.3C91.3 443.7 182.7 584.3 274.2 649.2C365.7 714 457.3 703 548.8 650.7C640.3 598.3 731.7 504.7 823 488.5C914.3 472.3 1005.7 533.7 1097 537.3C1188.3 541 1279.7 487 1371.2 472.7C1462.7 458.3 1554.3 483.7 1645.8 472.8C1737.3 462 1828.7 415 1874.3 391.5L1920 368L1920 247L1874.3 236.3C1828.7 225.7 1737.3 204.3 1645.8 197.2C1554.3 190 1462.7 197 1371.2 213.2C1279.7 229.3 1188.3 254.7 1097 254.7C1005.7 254.7 914.3 229.3 823 209.5C731.7 189.7 640.3 175.3 548.8 177.2C457.3 179 365.7 197 274.2 195.2C182.7 193.3 91.3 171.7 45.7 160.8L0 150Z" fill="#2071ff"></path><path d="M0 519L45.7 576.7C91.3 634.3 182.7 749.7 274.2 800.2C365.7 850.7 457.3 836.3 548.8 778.7C640.3 721 731.7 620 823 598.3C914.3 576.7 1005.7 634.3 1097 654.2C1188.3 674 1279.7 656 1371.2 634.5C1462.7 613 1554.3 588 1645.8 555.7C1737.3 523.3 1828.7 483.7 1874.3 463.8L1920 444L1920 366L1874.3 389.5C1828.7 413 1737.3 460 1645.8 470.8C1554.3 481.7 1462.7 456.3 1371.2 470.7C1279.7 485 1188.3 539 1097 535.3C1005.7 531.7 914.3 470.3 823 486.5C731.7 502.7 640.3 596.3 548.8 648.7C457.3 701 365.7 712 274.2 647.2C182.7 582.3 91.3 441.7 45.7 371.3L0 301Z" fill="#0061f1"></path><path d="M0 1016L45.7 1010.7C91.3 1005.3 182.7 994.7 274.2 983.8C365.7 973 457.3 962 548.8 951.2C640.3 940.3 731.7 929.7 823 935.2C914.3 940.7 1005.7 962.3 1097 964.2C1188.3 966 1279.7 948 1371.2 930C1462.7 912 1554.3 894 1645.8 870.5C1737.3 847 1828.7 818 1874.3 803.5L1920 789L1920 442L1874.3 461.8C1828.7 481.7 1737.3 521.3 1645.8 553.7C1554.3 586 1462.7 611 1371.2 632.5C1279.7 654 1188.3 672 1097 652.2C1005.7 632.3 914.3 574.7 823 596.3C731.7 618 640.3 719 548.8 776.7C457.3 834.3 365.7 848.7 274.2 798.2C182.7 747.7 91.3 632.3 45.7 574.7L0 517Z" fill="#0056d6"></path><path d="M0 1081L45.7 1081C91.3 1081 182.7 1081 274.2 1081C365.7 1081 457.3 1081 548.8 1081C640.3 1081 731.7 1081 823 1081C914.3 1081 1005.7 1081 1097 1081C1188.3 1081 1279.7 1081 1371.2 1081C1462.7 1081 1554.3 1081 1645.8 1081C1737.3 1081 1828.7 1081 1874.3 1081L1920 1081L1920 787L1874.3 801.5C1828.7 816 1737.3 845 1645.8 868.5C1554.3 892 1462.7 910 1371.2 928C1279.7 946 1188.3 964 1097 962.2C1005.7 960.3 914.3 938.7 823 933.2C731.7 927.7 640.3 938.3 548.8 949.2C457.3 960 365.7 971 274.2 981.8C182.7 992.7 91.3 1003.3 45.7 1008.7L0 1014Z" fill="#004cbb"></path></svg>