<svg id="visual" viewBox="0 0 960 540" width="960" height="540" xmlns="http://www.w3.org/2000/svg" xmlns:xlink="http://www.w3.org/1999/xlink" version="1.1"><path d="M0 23L22.8 30.2C45.7 37.3 91.3 51.7 137 53.3C182.7 55 228.3 44 274 44.8C319.7 45.7 365.3 58.3 411.2 65.7C457 73 503 75 548.8 75C594.7 75 640.3 73 686 70.2C731.7 67.3 777.3 63.7 823 62.8C868.7 62 914.3 64 937.2 65L960 66L960 0L937.2 0C914.3 0 868.7 0 823 0C777.3 0 731.7 0 686 0C640.3 0 594.7 0 548.8 0C503 0 457 0 411.2 0C365.3 0 319.7 0 274 0C228.3 0 182.7 0 137 0C91.3 0 45.7 0 22.8 0L0 0Z" fill="#6198ff"></path><path d="M0 77L22.8 82.3C45.7 87.7 91.3 98.3 137 99.2C182.7 100 228.3 91 274 90.2C319.7 89.3 365.3 96.7 411.2 106.5C457 116.3 503 128.7 548.8 128.7C594.7 128.7 640.3 116.3 686 108.3C731.7 100.3 777.3 96.7 823 100.2C868.7 103.7 914.3 114.3 937.2 119.7L960 125L960 64L937.2 63C914.3 62 868.7 60 823 60.8C777.3 61.7 731.7 65.3 686 68.2C640.3 71 594.7 73 548.8 73C503 73 457 71 411.2 63.7C365.3 56.3 319.7 43.7 274 42.8C228.3 42 182.7 53 137 51.3C91.3 49.7 45.7 35.3 22.8 28.2L0 21Z" fill="#4385ff"></path><path d="M0 152L22.8 187.2C45.7 222.3 91.3 292.7 137 325.2C182.7 357.7 228.3 352.3 274 326.2C319.7 300 365.3 253 411.2 244.8C457 236.7 503 267.3 548.8 269.2C594.7 271 640.3 244 686 236.8C731.7 229.7 777.3 242.3 823 237C868.7 231.7 914.3 208.3 937.2 196.7L960 185L960 123L937.2 117.7C914.3 112.3 868.7 101.7 823 98.2C777.3 94.7 731.7 98.3 686 106.3C640.3 114.3 594.7 126.7 548.8 126.7C503 126.7 457 114.3 411.2 104.5C365.3 94.7 319.7 87.3 274 88.2C228.3 89 182.7 98 137 97.2C91.3 96.3 45.7 85.7 22.8 80.3L0 75Z" fill="#2071ff"></path><path d="M0 260L22.8 288.8C45.7 317.7 91.3 375.3 137 400.5C182.7 425.7 228.3 418.3 274 389.5C319.7 360.7 365.3 310.3 411.2 299.7C457 289 503 318 548.8 328C594.7 338 640.3 329 686 318.2C731.7 307.3 777.3 294.7 823 278.3C868.7 262 914.3 242 937.2 232L960 222L960 183L937.2 194.7C914.3 206.3 868.7 229.7 823 235C777.3 240.3 731.7 227.7 686 234.8C640.3 242 594.7 269 548.8 267.2C503 265.3 457 234.7 411.2 242.8C365.3 251 319.7 298 274 324.2C228.3 350.3 182.7 355.7 137 323.2C91.3 290.7 45.7 220.3 22.8 185.2L0 150Z" fill="#0061f1"></path><path d="M0 509L22.8 506.2C45.7 503.3 91.3 497.7 137 492.2C182.7 486.7 228.3 481.3 274 476C319.7 470.7 365.3 465.3 411.2 468C457 470.7 503 481.3 548.8 482.2C594.7 483 640.3 474 686 465C731.7 456 777.3 447 823 435.3C868.7 423.7 914.3 409.3 937.2 402.2L960 395L960 220L937.2 230C914.3 240 868.7 260 823 276.3C777.3 292.7 731.7 305.3 686 316.2C640.3 327 594.7 336 548.8 326C503 316 457 287 411.2 297.7C365.3 308.3 319.7 358.7 274 387.5C228.3 416.3 182.7 423.7 137 398.5C91.3 373.3 45.7 315.7 22.8 286.8L0 258Z" fill="#0056d6"></path><path d="M0 541L22.8 541C45.7 541 91.3 541 137 541C182.7 541 228.3 541 274 541C319.7 541 365.3 541 411.2 541C457 541 503 541 548.8 541C594.7 541 640.3 541 686 541C731.7 541 777.3 541 823 541C868.7 541 914.3 541 937.2 541L960 541L960 393L937.2 400.2C914.3 407.3 868.7 421.7 823 433.3C777.3 445 731.7 454 686 463C640.3 472 594.7 481 548.8 480.2C503 479.3 457 468.7 411.2 466C365.3 463.3 319.7 468.7 274 474C228.3 479.3 182.7 484.7 137 490.2C91.3 495.7 45.7 501.3 22.8 504.2L0 507Z" fill="#004cbb"></path></svg>