<svg id="visual" viewBox="0 0 1100 1500" width="1100" height="1500" xmlns="http://www.w3.org/2000/svg" xmlns:xlink="http://www.w3.org/1999/xlink" version="1.1"><rect x="0" y="0" width="1100" height="1500" fill="#002233"></rect><path d="M0 355L16.7 398C33.3 441 66.7 527 100 517.5C133.3 508 166.7 403 200 342.2C233.3 281.3 266.7 264.7 300 317.7C333.3 370.7 366.7 493.3 400 540.7C433.3 588 466.7 560 500 511.8C533.3 463.7 566.7 395.3 600 391.3C633.3 387.3 666.7 447.7 700 476.8C733.3 506 766.7 504 800 521.2C833.3 538.3 866.7 574.7 900 599.7C933.3 624.7 966.7 638.3 1000 594.5C1033.3 550.7 1066.7 449.3 1083.3 398.7L1100 348L1100 0L1083.3 0C1066.7 0 1033.3 0 1000 0C966.7 0 933.3 0 900 0C866.7 0 833.3 0 800 0C766.7 0 733.3 0 700 0C666.7 0 633.3 0 600 0C566.7 0 533.3 0 500 0C466.7 0 433.3 0 400 0C366.7 0 333.3 0 300 0C266.7 0 233.3 0 200 0C166.7 0 133.3 0 100 0C66.7 0 33.3 0 16.7 0L0 0Z" fill="#0066FF" stroke-linecap="round" stroke-linejoin="miter"></path></svg>