<?xml version="1.0" encoding="UTF-8" standalone="no"?>
<!-- Created with Inkscape (http://www.inkscape.org/) -->

<svg
   width="116.47129mm"
   height="112.90071mm"
   viewBox="0 0 116.47129 112.90071"
   version="1.1"
   id="svg5"
   xml:space="preserve"
   xmlns:xlink="http://www.w3.org/1999/xlink"
   xmlns="http://www.w3.org/2000/svg"
   xmlns:svg="http://www.w3.org/2000/svg"><defs
     id="defs2"><linearGradient
       id="linearGradient15473"><stop
         style="stop-color:#000000;stop-opacity:1;"
         offset="0"
         id="stop15469" /><stop
         style="stop-color:#000000;stop-opacity:0;"
         offset="1"
         id="stop15471" /></linearGradient><linearGradient
       xlink:href="#linearGradient15473"
       id="linearGradient15475"
       x1="45.006882"
       y1="30.769796"
       x2="118.50624"
       y2="30.769796"
       gradientUnits="userSpaceOnUse" /><linearGradient
       xlink:href="#linearGradient15473"
       id="linearGradient15477"
       x1="116.10361"
       y1="54.315262"
       x2="132.43269"
       y2="54.315262"
       gradientUnits="userSpaceOnUse" /><linearGradient
       xlink:href="#linearGradient15473"
       id="linearGradient15479"
       x1="45.401711"
       y1="59.790981"
       x2="118.83294"
       y2="59.790981"
       gradientUnits="userSpaceOnUse" /><linearGradient
       xlink:href="#linearGradient15473"
       id="linearGradient15481"
       x1="29.609106"
       y1="88.675476"
       x2="130.88901"
       y2="88.675476"
       gradientUnits="userSpaceOnUse" /><linearGradient
       xlink:href="#linearGradient15473"
       id="linearGradient15483"
       x1="49.116997"
       y1="95.802956"
       x2="111.85424"
       y2="95.802956"
       gradientUnits="userSpaceOnUse" /><linearGradient
       xlink:href="#linearGradient15473"
       id="linearGradient15485"
       x1="115.8322"
       y1="54.335388"
       x2="132.60303"
       y2="54.335388"
       gradientUnits="userSpaceOnUse" /><linearGradient
       xlink:href="#linearGradient15473"
       id="linearGradient15487"
       x1="117.00477"
       y1="54.647476"
       x2="127.77922"
       y2="54.647476"
       gradientUnits="userSpaceOnUse" /><linearGradient
       xlink:href="#linearGradient15473"
       id="linearGradient15489"
       x1="115.15271"
       y1="54.494587"
       x2="132.90479"
       y2="54.494587"
       gradientUnits="userSpaceOnUse" /><linearGradient
       xlink:href="#linearGradient15473"
       id="linearGradient15491"
       x1="44.848412"
       y1="30.70533"
       x2="118.66471"
       y2="30.70533"
       gradientUnits="userSpaceOnUse" /><linearGradient
       xlink:href="#linearGradient15473"
       id="linearGradient15493"
       x1="44.835224"
       y1="58.546604"
       x2="119.10301"
       y2="58.546604"
       gradientUnits="userSpaceOnUse" /><linearGradient
       xlink:href="#linearGradient15473"
       id="linearGradient15495"
       x1="29.321157"
       y1="87.905998"
       x2="131.17697"
       y2="87.905998"
       gradientUnits="userSpaceOnUse" /><linearGradient
       xlink:href="#linearGradient15473"
       id="linearGradient15497"
       x1="54.826473"
       y1="30.178431"
       x2="64.908173"
       y2="30.178431"
       gradientUnits="userSpaceOnUse" /><linearGradient
       xlink:href="#linearGradient15473"
       id="linearGradient15499"
       x1="66.52317"
       y1="30.118004"
       x2="71.588486"
       y2="30.118004"
       gradientUnits="userSpaceOnUse" /><linearGradient
       xlink:href="#linearGradient15473"
       id="linearGradient15501"
       x1="63.555267"
       y1="30.763107"
       x2="69.156464"
       y2="30.763107"
       gradientUnits="userSpaceOnUse" /><linearGradient
       xlink:href="#linearGradient15473"
       id="linearGradient15503"
       x1="61.598377"
       y1="28.658869"
       x2="76.961594"
       y2="28.658869"
       gradientUnits="userSpaceOnUse" /><linearGradient
       xlink:href="#linearGradient15473"
       id="linearGradient15505"
       x1="54.930893"
       y1="29.86879"
       x2="70.867752"
       y2="29.86879"
       gradientUnits="userSpaceOnUse" /><clipPath
       clipPathUnits="userSpaceOnUse"
       id="clipPath16568"><use
         x="0"
         y="0"
         xlink:href="#g16564"
         id="use16570" /></clipPath><clipPath
       clipPathUnits="userSpaceOnUse"
       id="clipPath29975"><use
         x="0"
         y="0"
         xlink:href="#g29971"
         id="use29977" /></clipPath></defs><g
     id="layer1"
     transform="matrix(1,0,0,0.98507575,-16.986845,-37.90918)"><g
       id="g3407"
       transform="matrix(0.65801361,0,0,0.67599941,-11.886885,-22.197192)"><g
         id="g3374"
         transform="translate(2.8069555,14.977807)"><g
           id="g16566"
           clip-path="url(#clipPath16568)"
           transform="matrix(0.60818873,0,0,0.66541778,47.277983,143.69308)"><g
             id="g16564"><path
               style="fill:none;fill-rule:evenodd;stroke:url(#linearGradient15505);stroke-width:0.250272;stroke-opacity:1"
               id="path2881"
               d="m 58.561717,31.31591 c 0.44631,0.01274 0.892777,0.02776 1.339183,0.03874 0.432635,-0.0041 0.865857,0.03709 1.297857,-5.8e-4 0.383675,-0.05618 0.768703,-0.0948 1.154385,-0.113425 0.314583,-0.01108 0.629243,-0.01253 0.943906,-0.01447 0.503533,-0.01627 1.006372,-0.01485 1.509268,0.02231 0.435235,0.06596 0.870137,0.133853 1.305467,0.198303 0.402763,0.04327 0.807264,0.05801 1.211188,0.07048 0.415075,0.0029 0.829922,-0.01366 1.244907,8.71e-4 0.567782,0.02344 1.135879,0.0221 1.701713,0.09432 0.08357,0.01019 0.167129,0.02044 0.250692,0.03066 0,0 -3.218914,-3.19488 -3.218914,-3.19488 v 0 c -0.08333,-0.0079 -0.166657,-0.01584 -0.249985,-0.02379 -0.570083,-0.03726 -1.141035,-0.0392 -1.7113,-0.07152 -0.423965,-0.01142 -0.848037,-0.01198 -1.271969,-0.02631 -0.393931,-0.01031 -0.787973,-0.03012 -1.179101,-0.09868 -0.436868,-0.06567 -0.874653,-0.136275 -1.314092,-0.157333 -0.51089,-0.01235 -1.021863,-0.009 -1.532779,-0.01923 -0.322847,1.31e-4 -0.646568,-0.0058 -0.968577,0.02954 -0.377199,0.04383 -0.753925,0.105493 -1.132785,0.113901 -0.424666,-0.0029 -0.849388,0.005 -1.273983,-0.0099 -0.465043,-0.01387 -0.929707,-0.03326 -1.393713,-0.07849 0,0 3.288632,3.209231 3.288632,3.209231 z" /><path
               style="fill:none;fill-rule:evenodd;stroke:url(#linearGradient15503);stroke-width:0.250272;stroke-opacity:1"
               id="path2883"
               d="m 65.16561,30.560217 c 0.165637,-0.05314 0.330166,-0.112952 0.496912,-0.159402 1.747472,-0.486761 3.531827,-0.730638 5.314777,-0.80068 0.506575,-0.0199 1.013572,-0.0062 1.520359,-0.0094 1.133732,0.02663 2.265733,0.13822 3.38968,0.33876 0.231032,0.04122 0.46078,0.09452 0.691168,0.141788 0,0 -3.104182,-3.106544 -3.104182,-3.106544 v 0 c -1.296652,-0.150763 -2.596787,-0.250779 -3.899181,-0.217249 -0.500598,0.01656 -1.001413,0.02376 -1.50179,0.04964 -2.072863,0.107181 -4.13839,0.373901 -6.19998,0.673905 0,0 3.292237,3.089179 3.292237,3.089179 z" /><path
               style="fill:none;fill-rule:evenodd;stroke:url(#linearGradient15501);stroke-width:0.250272;stroke-opacity:1"
               id="path2885"
               d="m 63.826775,28.278725 c 0.104255,0.240313 0.140528,0.329321 0.275226,0.600363 0.188571,0.379442 0.388329,0.748637 0.581056,1.124294 0.299102,0.583 0.280981,0.550987 0.562169,1.117431 0,0 3.602519,2.112051 3.602519,2.112051 v 0 C 68.558513,32.67138 68.272431,32.106891 67.989358,31.53976 67.876192,31.313036 67.69569,30.955675 67.589536,30.69884 c -0.02224,-0.0538 -0.0379,-0.112063 -0.05686,-0.168096 0,0 -3.705901,-2.252019 -3.705901,-2.252019 z" /><path
               style="fill:none;fill-rule:evenodd;stroke:url(#linearGradient15499);stroke-width:0.250272;stroke-opacity:1"
               id="path2887"
               d="m 66.771222,27.292647 c 0.35778,0.938742 0.63307,1.92818 0.902633,2.917124 0.04304,0.169283 0.08608,0.338568 0.12912,0.507853 0,0 3.581431,2.249275 3.581431,2.249275 v 0 c -0.04716,-0.174755 -0.09431,-0.349509 -0.141472,-0.524265 -0.16479,-0.595591 -0.328446,-1.19126 -0.489517,-1.788656 -0.04448,-0.164967 -0.08914,-0.329863 -0.135918,-0.493678 -0.03312,-0.116 -0.0735,-0.228277 -0.103746,-0.345681 -0.02107,-0.0818 -0.03332,-0.167243 -0.04997,-0.250868 0,0 -3.692559,-2.271104 -3.692559,-2.271104 z" /><path
               style="fill:none;fill-rule:evenodd;stroke:url(#linearGradient15497);stroke-width:0.250272;stroke-opacity:1"
               id="path2958"
               d="m 58.085266,29.747531 c 0.112749,0.05504 0.227473,0.103267 0.338248,0.165122 0.333727,0.186358 1.189762,0.720958 1.463591,0.893533 0.921989,0.581074 1.839425,1.175565 2.758738,1.764236 0.723022,0.472277 1.442137,0.955212 2.171031,1.411028 0,0 -3.105369,-3.312966 -3.105369,-3.312966 v 0 c -0.679825,-0.410098 -1.35327,-0.838696 -2.027316,-1.265596 -1.591694,-1.001028 -3.168849,-2.043152 -4.766514,-3.027024 0,0 3.167591,3.371667 3.167591,3.371667 z" /><ellipse
               style="fill:none;fill-rule:evenodd;stroke:url(#linearGradient15495);stroke-width:0.250272;stroke-opacity:1"
               id="path1009"
               cx="80.249062"
               cy="87.905998"
               rx="50.802769"
               ry="7.593009" /><path
               id="rect2352"
               style="fill:#8546e7;fill-opacity:1;fill-rule:evenodd;stroke:url(#linearGradient15493);stroke-width:0.215102;stroke-opacity:1"
               d="m 44.956897,29.471794 h 73.448573 c 1.13217,24.598831 2.1186,48.933997 -12.06529,57.696311 L 54.910765,87.62121 C 39.581117,80.786367 47.459649,49.706554 44.956897,29.471794 Z" /><ellipse
               style="fill:#bc99f2;fill-opacity:1;fill-rule:evenodd;stroke:url(#linearGradient15491);stroke-width:0.250272;stroke-opacity:1"
               id="path2294"
               cx="81.756561"
               cy="30.70533"
               rx="36.783012"
               ry="8.3016901" /><path
               style="fill:none;stroke:url(#linearGradient15489);stroke-width:0.250272px;stroke-linecap:butt;stroke-linejoin:miter;stroke-opacity:1"
               d="m 118.65263,33.843772 h 0.75375 c 0,0 6.6241,2.418616 9.19575,5.264488 1.45214,1.606981 2.52033,3.90305 3.16575,6.276886 0.98796,3.63366 1.16315,7.688625 0.9045,11.541374 -0.19278,2.871667 -0.7531,5.791279 -1.809,8.301684 -0.83964,1.996251 -2.06512,3.754263 -3.46725,5.06201 -1.20335,1.122347 -2.67575,1.624082 -4.07025,2.227286 -2.65665,1.149162 -8.1405,2.632244 -8.1405,2.632244"
               id="path15088" /><path
               style="fill:none;stroke:url(#linearGradient15487);stroke-width:0.250272px;stroke-linecap:butt;stroke-linejoin:miter;stroke-opacity:1"
               d="m 117.03207,70.442067 c 0,0 5.62294,-1.257067 7.839,-3.442158 1.04536,-1.030756 1.82173,-2.613378 2.26126,-4.252084 0.47808,-1.782491 0.22734,-3.777436 0.30149,-5.669447 0.078,-1.989444 0.34467,-3.998066 0.15075,-5.973165 -0.20262,-2.063787 -0.63963,-4.127753 -1.35674,-5.973168 -0.41397,-1.065311 -1.01295,-2.002374 -1.65826,-2.834722 -0.80474,-1.038002 -1.68884,-2.039217 -2.71349,-2.632244 -0.98654,-0.570967 -3.16576,-0.809922 -3.16576,-0.809922"
               id="path15090" /><path
               style="fill:#9caff3;fill-opacity:1;fill-rule:evenodd;stroke:url(#linearGradient15485);stroke-width:0.0873554;stroke-opacity:1"
               d="m 115.89208,74.653489 c 0.36952,-1.15189 0.88313,-2.86959 0.9868,-3.300253 0.0737,-0.30625 0.15815,-0.592537 0.18763,-0.636189 0.0295,-0.04365 0.54257,-0.215198 1.1402,-0.381215 3.11136,-0.864294 5.48194,-1.983904 6.73974,-3.183135 1.15889,-1.104924 2.18259,-3.241619 2.49178,-5.200866 0.0691,-0.437928 0.1065,-1.329795 0.10735,-2.560558 6.5e-4,-1.038711 0.0558,-2.747139 0.1224,-3.796504 0.16059,-2.530239 0.10969,-4.640176 -0.14763,-6.119826 -0.58717,-3.376307 -1.31263,-5.266936 -2.75417,-7.17762 -1.80783,-2.396197 -3.01121,-3.202023 -5.23098,-3.502847 -0.35552,-0.04818 -0.531,-0.119084 -0.57453,-0.232134 -0.0345,-0.08952 -0.0848,-0.914474 -0.11182,-1.833225 -0.027,-0.918755 -0.0692,-1.909643 -0.0937,-2.201974 l -0.0445,-0.53151 h 0.28357 c 0.48091,0 3.23821,1.179511 5.19849,2.223797 1.30396,0.694652 2.95003,1.785341 3.69306,2.447035 1.93249,1.720946 3.52715,5.091116 4.20901,8.895344 0.40295,2.24814 0.46456,3.073815 0.46456,6.226266 0,3.133421 -0.064,4.143649 -0.3873,6.109668 -0.68897,4.19029 -2.21409,7.535761 -4.48152,9.830623 -1.03176,1.044237 -1.94254,1.580376 -4.36462,2.569266 -2.26391,0.924312 -7.50768,2.58612 -7.43381,2.355857 z"
               id="path15094" /><path
               id="rect17842"
               style="fill:#a18c9b;fill-opacity:0.992157;fill-rule:evenodd;stroke:url(#linearGradient15483);stroke-width:0.250272;stroke-opacity:1"
               d="m 49.345298,93.474201 h 62.259772 l -3.46725,4.657052 -56.079021,-0.404957 z" /><path
               style="fill:#a38e9d;fill-opacity:1;fill-rule:evenodd;stroke:url(#linearGradient15481);stroke-width:0.174711;stroke-opacity:1"
               d="M 66.229305,94.970485 C 47.605714,94.1351 33.159768,91.701518 30.298452,88.91753 c -0.802652,-0.78096 -0.802652,-1.242106 0,-2.023066 1.632551,-1.588431 7.610308,-3.230542 15.888912,-4.364744 l 2.419818,-0.331523 1.047433,1.393137 c 1.256486,1.671185 2.433944,2.739693 3.973779,3.606088 l 1.143908,0.643624 25.853634,-0.225347 25.853634,-0.225346 1.13011,-0.8052 c 1.0455,-0.744915 2.60422,-2.221204 3.94732,-3.738569 l 0.55492,-0.626931 2.30933,0.322009 c 8.29173,1.156193 14.15563,2.77387 15.77842,4.352802 0.80265,0.78096 0.80265,1.242106 0,2.023066 -2.92308,2.844078 -17.30281,5.224424 -36.684604,6.072577 -5.342463,0.23379 -21.901831,0.221881 -27.285761,-0.01961 z"
               id="path10754" /><path
               style="fill:#ccb6c2;fill-opacity:1;fill-rule:evenodd;stroke:url(#linearGradient15479);stroke-width:0.349422;stroke-opacity:1"
               d="M 53.253675,86.269896 C 51.2639,85.001636 48.892418,81.877447 47.755837,79.027044 47.296193,77.874319 46.618265,75.505303 46.249328,73.762559 45.59932,70.69212 45.578505,70.008686 45.577542,51.706191 l -0.0011,-18.887745 1.108812,0.759046 c 2.874553,1.967801 9.514394,3.740701 18.337946,4.896408 5.520387,0.723057 27.946126,0.723057 33.466511,0 9.200709,-1.205105 15.789399,-3.016554 18.587669,-5.110358 l 1.25141,-0.93637 0.2219,6.327126 c 0.12205,3.479922 0.14339,9.698423 0.0474,13.818897 -0.24675,10.593455 -1.05006,15.987788 -3.3168,22.272827 -0.98261,2.724503 -1.7467,4.119569 -3.66488,6.691268 -1.3329,1.787005 -3.10183,3.724124 -3.93096,4.304708 l -1.5075,1.055607 -25.638633,0.211073 -25.638636,0.211073 z"
               id="path2871" /><path
               style="fill:#ccb6c2;fill-opacity:1;fill-rule:evenodd;stroke:url(#linearGradient15477);stroke-width:0.349422;stroke-opacity:1"
               d="m 116.27832,74.210862 c 0,-0.08711 0.2082,-0.857267 0.46267,-1.711474 0.43591,-1.463291 0.58054,-1.591102 2.50123,-2.210248 4.81788,-1.553074 6.8129,-3.214354 7.92867,-6.602318 0.80323,-2.438939 0.91964,-12.80819 0.18016,-16.047488 -0.99415,-4.354876 -3.77016,-8.017574 -6.69467,-8.833039 l -1.66456,-0.46414 v -1.996092 c 0,-1.097849 0.11023,-1.996092 0.24495,-1.996092 0.56612,0 5.45525,2.395049 6.90455,3.382346 3.00044,2.043977 4.77474,5.071224 5.69594,9.718205 0.58145,2.93316 0.54442,10.488975 -0.0649,13.249622 -0.96692,4.380511 -2.70257,7.630767 -5.06703,9.488728 -1.49637,1.175833 -10.42697,4.620627 -10.42697,4.02199 z"
               id="path2873" /><path
               style="fill:#937d8b;fill-opacity:1;fill-rule:evenodd;stroke:url(#linearGradient15475);stroke-width:0.349422;stroke-opacity:1"
               d="M 73.163807,38.37972 C 58.779838,37.652799 47.894571,34.958449 45.605196,31.558341 c -0.564806,-0.838831 -0.564806,-0.867195 0,-1.706026 0.835985,-1.241579 2.435075,-2.234613 5.11876,-3.178747 18.447643,-6.489969 62.063284,-4.426336 67.183974,3.178747 0.5648,0.838831 0.5648,0.86745 0,1.721405 -1.62186,2.452154 -8.21703,4.649086 -18.061362,6.016463 -3.083747,0.42833 -17.001648,1.246994 -19.446758,1.143875 -0.746211,-0.03147 -4.002414,-0.190923 -7.236003,-0.354338 z"
               id="path3926" /></g></g><g
           id="g29973"
           clip-path="url(#clipPath29975)"
           transform="matrix(0.44252322,-0.29290128,0.29213777,0.45901375,62.069163,90.337196)"
           style="opacity:1"><g
             id="g29971"><path
               style="fill:none;stroke:none;stroke-width:0.264583px;stroke-linecap:butt;stroke-linejoin:miter;stroke-opacity:1"
               d="m 141.05197,150.45543 c 0,0 9.38367,0.25888 13.58278,2.08966 2.44312,1.06518 4.27852,3.19051 6.26898,4.96294 3.31056,2.94792 7.14496,5.58913 9.40346,9.40347 1.10903,1.87302 1.39129,4.13659 1.82845,6.26897 0.58128,2.83534 1.16407,5.72799 1.04483,8.61985 -0.12452,3.01987 -0.88422,6.00988 -1.82845,8.88104 -1.16838,3.55273 -2.86595,6.92873 -4.70173,10.18709 -2.06257,3.66088 -4.08648,7.47199 -7.0526,10.44829 -1.85813,1.86451 -4.25036,3.12467 -6.53018,4.44053 -2.42838,1.4016 -4.94459,2.68615 -7.57502,3.6569 -1.60484,0.59226 -4.96294,1.30604 -4.96294,1.30604 l -2.87328,-1.04483 0.52242,-2.08966"
               id="path27003" /><path
               style="fill:none;stroke:none;stroke-width:0.264583px;stroke-linecap:butt;stroke-linejoin:miter;stroke-opacity:1"
               d="m 144.18646,157.24682 c 0,0 6.04404,-0.0395 8.61984,1.30604 2.01983,1.05513 3.28093,3.18128 4.70173,4.96294 1.76158,2.20899 3.5928,4.45393 4.70173,7.0526 0.9452,2.21497 1.44102,4.6477 1.56725,7.0526 0.16077,3.06304 -0.33775,6.15762 -1.04483,9.14226 -0.64135,2.70719 -1.92321,5.22134 -2.87328,7.83622 -0.79003,2.17441 -1.33535,4.4515 -2.35087,6.53018 -0.85888,1.75805 -1.91278,3.43459 -3.13449,4.96294 -1.23015,1.5389 -2.5034,3.14355 -4.17931,4.17932 -1.63951,1.01327 -3.6183,1.35012 -5.48536,1.82845 -0.94301,0.24159 -2.87328,0.52241 -2.87328,0.52241"
               id="path27005" /><path
               style="fill:#e2e0b7;fill-opacity:1;fill-rule:evenodd;stroke:none;stroke-width:0.98724;stroke-opacity:1"
               d="M 310.4871,858.74103 C 253.93148,855.35158 198.40619,848.2858 149.32744,838.23294 135.65504,835.4324 132.91932,834.25648 126.58611,828.45776 103.46243,807.28561 88.187986,741.75783 90.188423,672.3107 92.1719,603.45231 108.0029,556.8129 132.19068,548.56863 c 2.5426,-0.86663 18.45178,-0.86838 65.65148,-0.007 47.64913,0.86935 91.28576,0.85419 185.59825,-0.0645 l 123.30258,-1.20107 6.18257,3.04367 c 7.054,3.47268 15.19778,11.63468 19.44875,19.49228 13.63578,25.20471 22.97878,81.78524 20.99759,127.15991 -2.9911,68.50462 -18.70361,118.07082 -42.75508,134.87391 -15.77894,11.02365 -72.78606,23.20177 -124.09536,26.50983 -14.05398,0.90609 -63.08208,1.14183 -76.03436,0.36558 z"
               id="path27814"
               transform="scale(0.26458333)" /><path
               style="fill:#e2e0b7;fill-opacity:1;fill-rule:evenodd;stroke:none;stroke-width:0.261207;stroke-opacity:1"
               d="m 16.665891,160.9852 c -4.309921,-4.07903 -8.2790284,-7.85767 -8.8202383,-8.39699 l -0.9840177,-0.98057 3.63861,-2.66904 c 2.001235,-1.46798 3.726118,-2.66905 3.833072,-2.66905 0.106954,0 3.579571,0.95617 7.716926,2.12482 l 7.522464,2.12482 -0.400537,0.77455 c -1.561684,3.01997 -3.131414,8.4185 -4.005237,13.77461 -0.289015,1.77152 -0.556834,3.24622 -0.595152,3.27711 -0.03832,0.0309 -3.595969,-3.28124 -7.90589,-7.36026 z"
               id="path27816" /><path
               style="fill:#e2e0b7;fill-opacity:1;fill-rule:evenodd;stroke:none;stroke-width:0.261207;stroke-opacity:1"
               d="m 135.45857,217.75679 -1.10262,-0.39045 1.23632,-1.61329 c 0.67997,-0.8873 1.63591,-2.38411 2.1243,-3.32625 l 0.88798,-1.71298 2.15732,-0.44406 c 5.16288,-1.06272 6.82874,-1.97487 9.4849,-5.19353 2.4453,-2.96314 3.89993,-5.61081 5.39423,-9.81843 0.75067,-2.11368 1.86323,-5.13604 2.47238,-6.71635 1.6778,-4.35269 2.19016,-7.09093 2.19941,-11.75433 0.0123,-6.18144 -0.89134,-8.66804 -5.24744,-14.44028 -3.17141,-4.20242 -4.5621,-5.64058 -6.08993,-6.29784 -1.47165,-0.63309 -3.99791,-1.06805 -6.21875,-1.07072 -1.07884,-0.001 -1.67806,-0.11379 -1.74972,-0.32848 -0.18336,-0.54938 -1.87369,-4.99873 -2.08391,-5.48536 -0.16963,-0.39266 -0.0481,-0.45711 0.86192,-0.45711 1.78913,0 7.11633,0.76912 9.18359,1.32588 2.29607,0.61839 4.09986,1.74048 6.65058,4.13712 1.01126,0.95017 2.9059,2.62787 4.21031,3.72822 3.36156,2.83567 5.96437,5.71095 6.8891,7.61025 0.50148,1.02999 1.08937,3.07807 1.62535,5.66237 2.03892,9.83095 0.64966,16.40604 -5.94733,28.14761 -5.1116,9.09781 -7.46162,11.3568 -16.4319,15.79544 -3.37098,1.66801 -3.81243,1.84366 -6.39433,2.54417 -2.26854,0.61549 -2.62728,0.62408 -4.11176,0.0984 z"
               id="path27818" /><path
               style="fill:#bab68a;fill-opacity:1;fill-rule:evenodd;stroke:none;stroke-width:0.263364;stroke-opacity:1"
               d="m 49.634459,145.45382 -6.665851,-0.1611 2.483357,-0.35589 c 7.11566,-1.01975 16.685911,-3.20693 21.776509,-4.97679 3.887565,-1.35161 8.1626,-3.5681 9.88134,-5.12322 2.565661,-2.32143 3.114911,-4.569 1.793594,-7.33952 -0.724918,-1.51999 -0.542866,-1.76014 1.838357,-2.42494 2.469571,-0.68948 10.685949,-0.67909 12.939593,0.0164 0.862638,0.2662 1.774326,0.67093 2.025969,0.89941 0.433632,0.3937 0.425363,0.4583 -0.158335,1.23656 -4.006894,5.34246 -1.7063,9.17568 7.073368,11.78555 2.72197,0.80913 4.77882,1.25837 17.19959,3.75653 11.70014,2.35322 11.59803,2.26118 2.74477,2.47426 -10.37312,0.24967 -64.832334,0.40856 -72.932261,0.2128 z"
               id="path28579" /></g></g></g><text
         xml:space="preserve"
         style="font-style:normal;font-variant:normal;font-weight:normal;font-stretch:normal;font-size:28.2222px;line-height:5.8;font-family:sans-serif;-inkscape-font-specification:'sans-serif, Normal';font-variant-ligatures:normal;font-variant-caps:normal;font-variant-numeric:normal;font-variant-east-asian:normal;white-space:pre;fill:#060602;fill-opacity:1;fill-rule:evenodd;stroke:none;stroke-width:0.375745;paint-order:markers stroke fill"
         id="text4430"><textPath
           xlink:href="#path3896"
           id="textPath3898"><tspan
             id="tspan2843"
             style="font-style:normal;font-variant:normal;font-weight:normal;font-stretch:normal;font-size:28.2222px;font-family:sans-serif;-inkscape-font-specification:'sans-serif, Normal';font-variant-ligatures:normal;font-variant-caps:normal;font-variant-numeric:normal;font-variant-east-asian:normal;stroke:none;stroke-width:0.375745">Poczęstuj się kawą</tspan></textPath></text><ellipse
         style="fill:none;fill-rule:evenodd;stroke:none;stroke-width:0.481177;stroke-opacity:1"
         id="path3896"
         cx="29.729998"
         cy="-227.01471"
         rx="75.602135"
         ry="75.553497"
         transform="matrix(-0.73001215,0.68343416,-0.69208152,-0.72181935,0,0)" /></g></g></svg>
