<?xml version="1.0" encoding="UTF-8" standalone="no"?>
<!-- Created with Inkscape (http://www.inkscape.org/) -->

<svg
   width="210mm"
   height="297mm"
   viewBox="0 0 210 297"
   version="1.1"
   id="svg5"
   inkscape:version="1.2.2 (732a01da63, 2022-12-09)"
   sodipodi:docname="rysunek.svg"
   xml:space="preserve"
   xmlns:inkscape="http://www.inkscape.org/namespaces/inkscape"
   xmlns:sodipodi="http://sodipodi.sourceforge.net/DTD/sodipodi-0.dtd"
   xmlns:xlink="http://www.w3.org/1999/xlink"
   xmlns="http://www.w3.org/2000/svg"
   xmlns:svg="http://www.w3.org/2000/svg"><sodipodi:namedview
     id="namedview7"
     pagecolor="#ffffff"
     bordercolor="#000000"
     borderopacity="0.25"
     inkscape:showpageshadow="2"
     inkscape:pageopacity="0.0"
     inkscape:pagecheckerboard="0"
     inkscape:deskcolor="#d1d1d1"
     inkscape:document-units="mm"
     showgrid="false"
     inkscape:zoom="0.71624578"
     inkscape:cx="337.87285"
     inkscape:cy="205.9349"
     inkscape:window-width="1920"
     inkscape:window-height="1051"
     inkscape:window-x="-9"
     inkscape:window-y="-9"
     inkscape:window-maximized="1"
     inkscape:current-layer="layer1" /><defs
     id="defs2"><rect
       x="129.8437"
       y="423.73722"
       width="139.61688"
       height="41.186979"
       id="rect6038" /><linearGradient
       inkscape:collect="always"
       id="linearGradient15473"><stop
         style="stop-color:#000000;stop-opacity:1;"
         offset="0"
         id="stop15469" /><stop
         style="stop-color:#000000;stop-opacity:0;"
         offset="1"
         id="stop15471" /></linearGradient><clipPath
       clipPathUnits="userSpaceOnUse"
       id="clipPath15390"><g
         id="g15394"
         transform="matrix(1.2252168,0,0,0.91219512,-15.210233,56.992572)"><g
           inkscape:label="Clip"
           id="use15392"
           transform="matrix(0.81618209,0,0,1.0962567,12.41432,-62.478489)"
           clip-path="url(#clipPath15390)"><path
             style="fill:none;fill-rule:evenodd;stroke:none;stroke-width:0.264583;stroke-opacity:1"
             id="path15396"
             d="m 46.939496,73.883461 c 0.546827,0.01162 1.093845,0.02532 1.640789,0.03534 0.530072,-0.0037 1.060863,0.03383 1.590157,-5.29e-4 0.470085,-0.05125 0.941827,-0.08648 1.414372,-0.103466 0.385432,-0.01011 0.770959,-0.01143 1.156489,-0.0132 0.616937,-0.01484 1.233024,-0.01355 1.849181,0.02035 0.533257,0.06017 1.066106,0.1221 1.59948,0.180891 0.493472,0.03947 0.989073,0.05292 1.483968,0.06429 0.508556,0.0026 1.016834,-0.01246 1.525281,7.94e-4 0.695656,0.02138 1.391698,0.02016 2.084967,0.08604 0.102386,0.0093 0.204769,0.01865 0.307152,0.02797 0,0 -3.943868,-2.914354 -3.943868,-2.914354 v 0 c -0.102095,-0.0072 -0.20419,-0.01445 -0.306285,-0.0217 -0.698476,-0.03399 -1.398016,-0.03576 -2.096714,-0.06524 -0.519449,-0.01042 -1.039029,-0.01093 -1.558438,-0.024 -0.482651,-0.0094 -0.965438,-0.02748 -1.444654,-0.09002 -0.535258,-0.0599 -1.07164,-0.124309 -1.610048,-0.143518 -0.625951,-0.01127 -1.252003,-0.0082 -1.877986,-0.01754 -0.395558,1.19e-4 -0.792186,-0.0053 -1.186717,0.02695 -0.462151,0.03998 -0.923722,0.09623 -1.387907,0.1039 -0.520308,-0.0026 -1.040685,0.0046 -1.560906,-0.009 -0.569778,-0.01265 -1.139092,-0.03034 -1.7076,-0.0716 0,0 4.029287,2.927445 4.029287,2.927445 z"
             transform="matrix(0.81618209,0,0,1.0962567,12.41432,-62.478489)" /><path
             style="fill:none;fill-rule:evenodd;stroke:none;stroke-width:0.264583;stroke-opacity:1"
             id="path15398"
             d="m 55.030697,73.194121 c 0.202941,-0.04847 0.404524,-0.103034 0.608825,-0.145405 2.141032,-0.444021 4.327253,-0.666485 6.511753,-0.730377 0.620665,-0.01815 1.241846,-0.0057 1.86277,-0.0086 1.389068,0.02429 2.776014,0.126084 4.153093,0.309015 0.283064,0.0376 0.564555,0.08622 0.846831,0.129339 0,0 -3.803296,-2.833775 -3.803296,-2.833775 v 0 c -1.58868,-0.137525 -3.181627,-0.228759 -4.777343,-0.198173 -0.613341,0.01511 -1.226947,0.02167 -1.840018,0.04528 -2.539706,0.09777 -5.070425,0.341071 -7.59632,0.614733 0,0 4.033705,2.817934 4.033705,2.817934 z"
             transform="matrix(0.81618209,0,0,1.0962567,12.41432,-62.478489)" /><path
             style="fill:none;fill-rule:evenodd;stroke:none;stroke-width:0.264583;stroke-opacity:1"
             id="path15400"
             d="m 53.390334,71.112956 c 0.127735,0.219212 0.172177,0.300405 0.337211,0.547648 0.23104,0.346125 0.475787,0.682903 0.71192,1.025575 0.366464,0.53181 0.344262,0.502608 0.688779,1.019315 0,0 4.413866,1.926603 4.413866,1.926603 v 0 c -0.354372,-0.512183 -0.704884,-1.027107 -1.05171,-1.544441 -0.138653,-0.206817 -0.359807,-0.5328 -0.489869,-0.767083 -0.02725,-0.04908 -0.04644,-0.102224 -0.06966,-0.153337 0,0 -4.540533,-2.05428 -4.540533,-2.05428 z"
             transform="matrix(0.81618209,0,0,1.0962567,12.41432,-62.478489)" /><path
             style="fill:none;fill-rule:evenodd;stroke:none;stroke-width:0.264583;stroke-opacity:1"
             id="path15402"
             d="m 56.997919,70.21346 c 0.438359,0.856316 0.775648,1.758876 1.105922,2.660986 0.05273,0.154419 0.105465,0.30884 0.158199,0.463261 0,0 4.38803,2.051778 4.38803,2.051778 v 0 c -0.05778,-0.159411 -0.115557,-0.31882 -0.173334,-0.478232 -0.201903,-0.543295 -0.402418,-1.086662 -0.599765,-1.631603 -0.0545,-0.150482 -0.10922,-0.3009 -0.166529,-0.450331 -0.04058,-0.105815 -0.09005,-0.208233 -0.127111,-0.315328 -0.02582,-0.07462 -0.04082,-0.152559 -0.06123,-0.228841 0,0 -4.524185,-2.07169 -4.524185,-2.07169 z"
             transform="matrix(0.81618209,0,0,1.0962567,12.41432,-62.478489)" /><path
             style="fill:none;fill-rule:evenodd;stroke:none;stroke-width:0.264583;stroke-opacity:1"
             id="path15404"
             d="m 46.35574,72.452793 c 0.138142,0.05021 0.278704,0.0942 0.414428,0.150624 0.408887,0.169995 1.457716,0.657654 1.793216,0.815076 1.129636,0.530053 2.253694,1.072345 3.380052,1.609328 0.885859,0.430808 1.76693,0.871339 2.659983,1.287132 0,0 -3.80475,-3.022071 -3.80475,-3.022071 v 0 c -0.832933,-0.374089 -1.658049,-0.765054 -2.483901,-1.15447 -1.95017,-0.913133 -3.882527,-1.863754 -5.840013,-2.761237 0,0 3.880985,3.075618 3.880985,3.075618 z"
             transform="matrix(0.81618209,0,0,1.0962567,12.41432,-62.478489)" /><ellipse
             style="fill:none;fill-rule:evenodd;stroke:#000000;stroke-width:0.264583;stroke-opacity:1"
             id="ellipse15406"
             cx="73.511192"
             cy="125.50466"
             rx="62.244404"
             ry="6.9263058"
             transform="matrix(0.81618209,0,0,1.0962567,12.41432,-62.478489)" /><path
             id="path15408"
             style="fill:#8546e7;fill-opacity:1;fill-rule:evenodd;stroke:#000000;stroke-width:0.227402"
             d="m 30.270642,72.201267 h 89.990428 c 1.38715,22.438934 2.59574,44.637353 -14.7826,52.630293 l -63.012182,0.41332 C 23.684146,119.01017 33.337056,90.659316 30.270642,72.201267 Z"
             sodipodi:nodetypes="ccccc"
             transform="matrix(0.81618209,0,0,1.0962567,12.41432,-62.478489)" /><ellipse
             style="fill:#bc99f2;fill-opacity:1;fill-rule:evenodd;stroke:#000000;stroke-width:0.264583;stroke-opacity:1"
             id="ellipse15410"
             cx="75.358208"
             cy="73.326492"
             rx="45.067165"
             ry="7.5727611"
             transform="matrix(0.81618209,0,0,1.0962567,12.41432,-62.478489)" /><path
             style="fill:none;stroke:#000000;stroke-width:0.264583px;stroke-linecap:butt;stroke-linejoin:miter;stroke-opacity:1"
             d="m 120.56389,76.189364 h 0.92351 c 0,0 8.11596,2.20625 11.26679,4.80224 1.77918,1.465881 3.08795,3.560344 3.87873,5.725745 1.21046,3.314607 1.42511,7.013526 1.10821,10.527985 -0.2362,2.619521 -0.92271,5.282776 -2.21642,7.572756 -1.02874,1.82097 -2.53022,3.42462 -4.24813,4.61754 -1.47437,1.0238 -3.27838,1.48148 -4.98694,2.03172 -3.25498,1.04826 -9.97388,2.40112 -9.97388,2.40112"
             id="path15412"
             sodipodi:nodetypes="ccaaaaaac"
             transform="matrix(0.81618209,0,0,1.0962567,12.41432,-62.478489)" /><path
             style="fill:none;stroke:#000000;stroke-width:0.264583px;stroke-linecap:butt;stroke-linejoin:miter;stroke-opacity:1"
             d="m 118.57836,109.57415 c 0,0 6.88932,-1.14669 9.60447,-3.13992 1.28079,-0.94025 2.23202,-2.38391 2.77053,-3.87873 0.58576,-1.62598 0.27854,-3.445759 0.3694,-5.171642 0.0955,-1.814761 0.42229,-3.647016 0.1847,-5.448692 -0.24826,-1.882576 -0.78369,-3.765316 -1.66231,-5.448694 -0.5072,-0.971772 -1.24108,-1.826556 -2.03172,-2.58582 -0.98599,-0.94686 -2.0692,-1.860164 -3.32462,-2.40112 -1.20872,-0.520833 -3.87874,-0.738807 -3.87874,-0.738807"
             id="path15414"
             sodipodi:nodetypes="caaaaaaac"
             transform="matrix(0.81618209,0,0,1.0962567,12.41432,-62.478489)" /><path
             style="fill:#9caff3;fill-opacity:1;fill-rule:evenodd;stroke:#000000;stroke-width:0.349042;stroke-opacity:1"
             d="m 442.89115,428.6581 c 1.71118,-3.97133 4.08955,-9.89339 4.56961,-11.37817 0.34138,-1.05585 0.73238,-2.04287 0.86888,-2.19337 0.1365,-0.1505 2.5125,-0.74193 5.27999,-1.3143 14.40788,-2.9798 25.38543,-6.83984 31.20997,-10.97439 5.36651,-3.80941 10.10703,-11.17602 11.53877,-17.93085 0.32002,-1.50983 0.49317,-4.58469 0.49712,-8.82795 0.003,-3.58113 0.2584,-9.47122 0.56681,-13.08908 0.74364,-8.72342 0.50793,-15.99778 -0.68366,-21.09912 -2.71901,-11.64038 -6.07844,-18.15864 -12.75382,-24.74604 -8.3716,-8.26129 -13.94416,-11.03951 -24.2233,-12.07665 -1.64635,-0.16611 -2.45896,-0.41056 -2.6605,-0.80032 -0.1596,-0.30864 -0.39262,-3.1528 -0.51783,-6.32035 -0.12521,-3.16756 -0.32043,-6.58381 -0.43383,-7.59167 l -0.20618,-1.83247 h 1.31314 c 2.22698,0 14.99532,4.06656 24.07286,7.66691 6.03831,2.39493 13.6608,6.15526 17.10159,8.43656 8.94888,5.93325 16.33335,17.55247 19.49086,30.66818 1.86595,7.75084 2.15123,10.59749 2.15123,21.46609 0,10.80299 -0.29655,14.28592 -1.79346,21.0641 -3.19047,14.44672 -10.25287,25.98079 -20.75277,33.89271 -4.7778,3.60018 -8.99541,5.44861 -20.21144,8.85797 -10.48358,3.18672 -34.76611,8.91608 -34.42404,8.12221 z"
             id="path15416"
             transform="matrix(0.21594818,0,0,0.29005125,12.41432,-62.478489)" /><path
             id="path15418"
             style="fill:#a18c9b;fill-opacity:0.992157;fill-rule:evenodd;stroke:#000000;stroke-width:0.264583"
             d="M 35.647385,130.58395 H 111.9291 l -4.24813,4.24814 -68.708958,-0.3694 z"
             sodipodi:nodetypes="ccccc"
             transform="matrix(0.81618209,0,0,1.0962567,12.41432,-62.478489)" /><path
             style="fill:#a38e9d;fill-opacity:1;fill-rule:evenodd;stroke:#000000;stroke-width:0.698084;stroke-opacity:1"
             d="M 212.91573,498.70433 C 126.67471,495.8242 59.779281,487.43402 46.529268,477.83576 c -3.716872,-2.69249 -3.716872,-4.28237 0,-6.97486 7.559922,-5.47638 35.241363,-11.13783 73.577432,-15.04818 l 11.20555,-1.14298 4.85039,4.80307 c 5.81846,5.76169 11.27096,9.44555 18.40154,12.43259 l 5.29714,2.219 119.72147,-0.77692 119.72147,-0.77692 5.23325,-2.77606 c 4.84146,-2.56822 12.05947,-7.65797 18.27901,-12.88934 l 2.56972,-2.16145 10.69388,1.11018 c 38.39685,3.98617 65.55107,9.56338 73.06577,15.00701 3.71687,2.69249 3.71687,4.28237 0,6.97486 -13.536,9.80543 -80.12481,18.01207 -169.87688,20.93622 -24.73956,0.80603 -101.4217,0.76497 -126.35328,-0.0676 z"
             id="path15420"
             transform="matrix(0.21594818,0,0,0.29005125,12.41432,-62.478489)" /><path
             style="fill:#ccb6c2;fill-opacity:1;fill-rule:evenodd;stroke:#000000;stroke-width:1.39617"
             d="m 152.82895,468.7076 c -9.21413,-4.37254 -20.19585,-15.1437 -25.45906,-24.97094 -2.12849,-3.97421 -5.2678,-12.14179 -6.97625,-18.15019 -3.01002,-10.58585 -3.10641,-12.9421 -3.11087,-76.043 l -0.005,-65.11865 5.13462,2.61694 c 13.31131,6.78432 44.05869,12.89669 84.91827,16.88118 25.56348,2.49286 129.41126,2.49286 154.97473,0 42.60609,-4.1548 73.1166,-10.40007 86.07467,-17.61881 l 5.79496,-3.22829 1.02758,21.81382 c 0.56519,11.99761 0.66397,33.43693 0.21952,47.64295 -1.14262,36.5227 -4.86253,55.12056 -15.35921,76.78928 -4.55021,9.39318 -8.08853,14.2029 -16.97115,23.06926 -6.17231,6.161 -14.36376,12.83954 -18.20322,14.8412 l -6.98085,3.63938 -118.72587,0.72771 -118.72587,0.72771 z"
             id="path15422"
             transform="matrix(0.21594818,0,0,0.29005125,12.41432,-62.478489)" /><path
             style="fill:#ccb6c2;fill-opacity:1;fill-rule:evenodd;stroke:#000000;stroke-width:1.39617"
             d="m 444.67975,427.13207 c 0,-0.30031 0.96411,-2.95557 2.14247,-5.90059 2.01859,-5.04494 2.68837,-5.48559 11.58259,-7.6202 22.31033,-5.35448 31.54873,-11.08202 36.7156,-22.76259 3.71955,-8.40865 4.25861,-44.15837 0.83427,-55.32639 -4.60365,-15.01416 -17.45862,-27.64192 -31.0013,-30.45337 l -7.70812,-1.6002 v -6.88186 c 0,-3.78502 0.51042,-6.88186 1.13427,-6.88186 2.62157,0 25.26189,8.25733 31.9732,11.6612 13.89427,7.04695 22.11059,17.48389 26.37641,33.50513 2.69257,10.11256 2.52108,36.16249 -0.30072,45.68028 -4.47754,15.10254 -12.51489,26.30834 -23.46407,32.71397 -6.92933,4.05388 -48.2846,15.93038 -48.2846,13.86648 z"
             id="path15424"
             transform="matrix(0.21594818,0,0,0.29005125,12.41432,-62.478489)" /><path
             style="fill:#937d8b;fill-opacity:1;fill-rule:evenodd;stroke:#000000;stroke-width:1.39617"
             d="m 245.02761,303.59824 c -66.60843,-2.50618 -117.01528,-11.7954 -127.61678,-23.51784 -2.61547,-2.89201 -2.61547,-2.9898 0,-5.88181 3.87123,-4.28055 11.2762,-7.7042 23.70365,-10.95926 85.42625,-22.37525 287.39897,-15.26053 311.11154,10.95926 2.61546,2.89201 2.61546,2.99068 0,5.93483 -7.51039,8.45421 -38.0509,16.0285 -83.63747,20.74276 -14.28003,1.47674 -78.73022,4.29922 -90.05289,3.9437 -3.45551,-0.1085 -18.53414,-0.65824 -33.50805,-1.22164 z"
             id="path15426"
             transform="matrix(0.21594818,0,0,0.29005125,12.41432,-62.478489)" /></g></g></clipPath><linearGradient
       inkscape:collect="always"
       xlink:href="#linearGradient15473"
       id="linearGradient15475"
       x1="45.00688"
       y1="30.769796"
       x2="118.50624"
       y2="30.769796"
       gradientUnits="userSpaceOnUse" /><linearGradient
       inkscape:collect="always"
       xlink:href="#linearGradient15473"
       id="linearGradient15477"
       x1="116.10361"
       y1="54.315261"
       x2="132.4327"
       y2="54.315261"
       gradientUnits="userSpaceOnUse" /><linearGradient
       inkscape:collect="always"
       xlink:href="#linearGradient15473"
       id="linearGradient15479"
       x1="45.401712"
       y1="59.790982"
       x2="118.83294"
       y2="59.790982"
       gradientUnits="userSpaceOnUse" /><linearGradient
       inkscape:collect="always"
       xlink:href="#linearGradient15473"
       id="linearGradient15481"
       x1="29.609107"
       y1="88.675473"
       x2="130.88901"
       y2="88.675473"
       gradientUnits="userSpaceOnUse" /><linearGradient
       inkscape:collect="always"
       xlink:href="#linearGradient15473"
       id="linearGradient15483"
       x1="49.116996"
       y1="95.802954"
       x2="111.85424"
       y2="95.802954"
       gradientUnits="userSpaceOnUse" /><linearGradient
       inkscape:collect="always"
       xlink:href="#linearGradient15473"
       id="linearGradient15485"
       x1="115.8322"
       y1="54.335387"
       x2="132.60302"
       y2="54.335387"
       gradientUnits="userSpaceOnUse" /><linearGradient
       inkscape:collect="always"
       xlink:href="#linearGradient15473"
       id="linearGradient15487"
       x1="117.00477"
       y1="54.647478"
       x2="127.77922"
       y2="54.647478"
       gradientUnits="userSpaceOnUse" /><linearGradient
       inkscape:collect="always"
       xlink:href="#linearGradient15473"
       id="linearGradient15489"
       x1="115.15271"
       y1="54.494588"
       x2="132.90479"
       y2="54.494588"
       gradientUnits="userSpaceOnUse" /><linearGradient
       inkscape:collect="always"
       xlink:href="#linearGradient15473"
       id="linearGradient15491"
       x1="44.848413"
       y1="30.70533"
       x2="118.66471"
       y2="30.70533"
       gradientUnits="userSpaceOnUse" /><linearGradient
       inkscape:collect="always"
       xlink:href="#linearGradient15473"
       id="linearGradient15493"
       x1="44.835224"
       y1="58.546603"
       x2="119.10301"
       y2="58.546603"
       gradientUnits="userSpaceOnUse" /><linearGradient
       inkscape:collect="always"
       xlink:href="#linearGradient15473"
       id="linearGradient15495"
       x1="29.321157"
       y1="87.905998"
       x2="131.17697"
       y2="87.905998"
       gradientUnits="userSpaceOnUse" /><linearGradient
       inkscape:collect="always"
       xlink:href="#linearGradient15473"
       id="linearGradient15497"
       x1="54.826473"
       y1="30.17843"
       x2="64.908173"
       y2="30.17843"
       gradientUnits="userSpaceOnUse" /><linearGradient
       inkscape:collect="always"
       xlink:href="#linearGradient15473"
       id="linearGradient15499"
       x1="66.523167"
       y1="30.118003"
       x2="71.588484"
       y2="30.118003"
       gradientUnits="userSpaceOnUse" /><linearGradient
       inkscape:collect="always"
       xlink:href="#linearGradient15473"
       id="linearGradient15501"
       x1="63.555267"
       y1="30.763108"
       x2="69.156461"
       y2="30.763108"
       gradientUnits="userSpaceOnUse" /><linearGradient
       inkscape:collect="always"
       xlink:href="#linearGradient15473"
       id="linearGradient15503"
       x1="61.598377"
       y1="28.658868"
       x2="76.96159"
       y2="28.658868"
       gradientUnits="userSpaceOnUse" /><linearGradient
       inkscape:collect="always"
       xlink:href="#linearGradient15473"
       id="linearGradient15505"
       x1="54.930892"
       y1="29.868789"
       x2="70.867752"
       y2="29.868789"
       gradientUnits="userSpaceOnUse" /><clipPath
       clipPathUnits="userSpaceOnUse"
       id="clipPath16568"><use
         x="0"
         y="0"
         xlink:href="#g16564"
         id="use16570" /></clipPath><clipPath
       clipPathUnits="userSpaceOnUse"
       id="clipPath29975"><use
         x="0"
         y="0"
         xlink:href="#g29971"
         id="use29977" /></clipPath></defs><g
     inkscape:label="Warstwa 1"
     inkscape:groupmode="layer"
     id="layer1"><path
       style="fill:#9ccff3;fill-opacity:1;fill-rule:evenodd;stroke:#000000;stroke-width:0.349042;stroke-opacity:1"
       d=""
       id="path15092"
       transform="scale(0.26458333)" /><g
       id="g16566"
       clip-path="url(#clipPath16568)"
       transform="matrix(0.60818873,0,0,0.66541778,47.277983,143.69308)"><g
         inkscape:label="Clip"
         id="g16564"><path
           style="fill:none;fill-rule:evenodd;stroke:url(#linearGradient15505);stroke-width:0.250272;stroke-opacity:1"
           id="path2881"
           d="m 58.561717,31.31591 c 0.44631,0.01274 0.892777,0.02776 1.339183,0.03874 0.432635,-0.0041 0.865857,0.03709 1.297857,-5.8e-4 0.383675,-0.05618 0.768703,-0.0948 1.154385,-0.113425 0.314583,-0.01108 0.629243,-0.01253 0.943906,-0.01447 0.503533,-0.01627 1.006372,-0.01485 1.509268,0.02231 0.435235,0.06596 0.870137,0.133853 1.305467,0.198303 0.402763,0.04327 0.807264,0.05801 1.211188,0.07048 0.415075,0.0029 0.829922,-0.01366 1.244907,8.71e-4 0.567782,0.02344 1.135879,0.0221 1.701713,0.09432 0.08357,0.01019 0.167129,0.02044 0.250692,0.03066 0,0 -3.218914,-3.19488 -3.218914,-3.19488 v 0 c -0.08333,-0.0079 -0.166657,-0.01584 -0.249985,-0.02379 -0.570083,-0.03726 -1.141035,-0.0392 -1.7113,-0.07152 -0.423965,-0.01142 -0.848037,-0.01198 -1.271969,-0.02631 -0.393931,-0.01031 -0.787973,-0.03012 -1.179101,-0.09868 -0.436868,-0.06567 -0.874653,-0.136275 -1.314092,-0.157333 -0.51089,-0.01235 -1.021863,-0.009 -1.532779,-0.01923 -0.322847,1.31e-4 -0.646568,-0.0058 -0.968577,0.02954 -0.377199,0.04383 -0.753925,0.105493 -1.132785,0.113901 -0.424666,-0.0029 -0.849388,0.005 -1.273983,-0.0099 -0.465043,-0.01387 -0.929707,-0.03326 -1.393713,-0.07849 0,0 3.288632,3.209231 3.288632,3.209231 z" /><path
           style="fill:none;fill-rule:evenodd;stroke:url(#linearGradient15503);stroke-width:0.250272;stroke-opacity:1"
           id="path2883"
           d="m 65.16561,30.560217 c 0.165637,-0.05314 0.330166,-0.112952 0.496912,-0.159402 1.747472,-0.486761 3.531827,-0.730638 5.314777,-0.80068 0.506575,-0.0199 1.013572,-0.0062 1.520359,-0.0094 1.133732,0.02663 2.265733,0.13822 3.38968,0.33876 0.231032,0.04122 0.46078,0.09452 0.691168,0.141788 0,0 -3.104182,-3.106544 -3.104182,-3.106544 v 0 c -1.296652,-0.150763 -2.596787,-0.250779 -3.899181,-0.217249 -0.500598,0.01656 -1.001413,0.02376 -1.50179,0.04964 -2.072863,0.107181 -4.13839,0.373901 -6.19998,0.673905 0,0 3.292237,3.089179 3.292237,3.089179 z" /><path
           style="fill:none;fill-rule:evenodd;stroke:url(#linearGradient15501);stroke-width:0.250272;stroke-opacity:1"
           id="path2885"
           d="m 63.826775,28.278725 c 0.104255,0.240313 0.140528,0.329321 0.275226,0.600363 0.188571,0.379442 0.388329,0.748637 0.581056,1.124294 0.299102,0.583 0.280981,0.550987 0.562169,1.117431 0,0 3.602519,2.112051 3.602519,2.112051 v 0 C 68.558513,32.67138 68.272431,32.106891 67.989358,31.53976 67.876192,31.313036 67.69569,30.955675 67.589536,30.69884 c -0.02224,-0.0538 -0.0379,-0.112063 -0.05686,-0.168096 0,0 -3.705901,-2.252019 -3.705901,-2.252019 z" /><path
           style="fill:none;fill-rule:evenodd;stroke:url(#linearGradient15499);stroke-width:0.250272;stroke-opacity:1"
           id="path2887"
           d="m 66.771222,27.292647 c 0.35778,0.938742 0.63307,1.92818 0.902633,2.917124 0.04304,0.169283 0.08608,0.338568 0.12912,0.507853 0,0 3.581431,2.249275 3.581431,2.249275 v 0 c -0.04716,-0.174755 -0.09431,-0.349509 -0.141472,-0.524265 -0.16479,-0.595591 -0.328446,-1.19126 -0.489517,-1.788656 -0.04448,-0.164967 -0.08914,-0.329863 -0.135918,-0.493678 -0.03312,-0.116 -0.0735,-0.228277 -0.103746,-0.345681 -0.02107,-0.0818 -0.03332,-0.167243 -0.04997,-0.250868 0,0 -3.692559,-2.271104 -3.692559,-2.271104 z" /><path
           style="fill:none;fill-rule:evenodd;stroke:url(#linearGradient15497);stroke-width:0.250272;stroke-opacity:1"
           id="path2958"
           d="m 58.085266,29.747531 c 0.112749,0.05504 0.227473,0.103267 0.338248,0.165122 0.333727,0.186358 1.189762,0.720958 1.463591,0.893533 0.921989,0.581074 1.839425,1.175565 2.758738,1.764236 0.723022,0.472277 1.442137,0.955212 2.171031,1.411028 0,0 -3.105369,-3.312966 -3.105369,-3.312966 v 0 c -0.679825,-0.410098 -1.35327,-0.838696 -2.027316,-1.265596 -1.591694,-1.001028 -3.168849,-2.043152 -4.766514,-3.027024 0,0 3.167591,3.371667 3.167591,3.371667 z" /><ellipse
           style="fill:none;fill-rule:evenodd;stroke:url(#linearGradient15495);stroke-width:0.250272;stroke-opacity:1"
           id="path1009"
           cx="80.249062"
           cy="87.905998"
           rx="50.802769"
           ry="7.593009" /><path
           id="rect2352"
           style="fill:#8546e7;fill-opacity:1;fill-rule:evenodd;stroke:url(#linearGradient15493);stroke-width:0.215102;stroke-opacity:1"
           d="m 44.956897,29.471794 h 73.448573 c 1.13217,24.598831 2.1186,48.933997 -12.06529,57.696311 L 54.910765,87.62121 C 39.581117,80.786367 47.459649,49.706554 44.956897,29.471794 Z"
           sodipodi:nodetypes="ccccc" /><ellipse
           style="fill:#bc99f2;fill-opacity:1;fill-rule:evenodd;stroke:url(#linearGradient15491);stroke-width:0.250272;stroke-opacity:1"
           id="path2294"
           cx="81.756561"
           cy="30.70533"
           rx="36.783012"
           ry="8.3016901" /><path
           style="fill:none;stroke:url(#linearGradient15489);stroke-width:0.250272px;stroke-linecap:butt;stroke-linejoin:miter;stroke-opacity:1"
           d="m 118.65263,33.843772 h 0.75375 c 0,0 6.6241,2.418616 9.19575,5.264488 1.45214,1.606981 2.52033,3.90305 3.16575,6.276886 0.98796,3.63366 1.16315,7.688625 0.9045,11.541374 -0.19278,2.871667 -0.7531,5.791279 -1.809,8.301684 -0.83964,1.996251 -2.06512,3.754263 -3.46725,5.06201 -1.20335,1.122347 -2.67575,1.624082 -4.07025,2.227286 -2.65665,1.149162 -8.1405,2.632244 -8.1405,2.632244"
           id="path15088"
           sodipodi:nodetypes="ccaaaaaac" /><path
           style="fill:none;stroke:url(#linearGradient15487);stroke-width:0.250272px;stroke-linecap:butt;stroke-linejoin:miter;stroke-opacity:1"
           d="m 117.03207,70.442067 c 0,0 5.62294,-1.257067 7.839,-3.442158 1.04536,-1.030756 1.82173,-2.613378 2.26126,-4.252084 0.47808,-1.782491 0.22734,-3.777436 0.30149,-5.669447 0.078,-1.989444 0.34467,-3.998066 0.15075,-5.973165 -0.20262,-2.063787 -0.63963,-4.127753 -1.35674,-5.973168 -0.41397,-1.065311 -1.01295,-2.002374 -1.65826,-2.834722 -0.80474,-1.038002 -1.68884,-2.039217 -2.71349,-2.632244 -0.98654,-0.570967 -3.16576,-0.809922 -3.16576,-0.809922"
           id="path15090"
           sodipodi:nodetypes="caaaaaaac" /><path
           style="fill:#9caff3;fill-opacity:1;fill-rule:evenodd;stroke:url(#linearGradient15485);stroke-width:0.0873554;stroke-opacity:1"
           d="m 115.89208,74.653489 c 0.36952,-1.15189 0.88313,-2.86959 0.9868,-3.300253 0.0737,-0.30625 0.15815,-0.592537 0.18763,-0.636189 0.0295,-0.04365 0.54257,-0.215198 1.1402,-0.381215 3.11136,-0.864294 5.48194,-1.983904 6.73974,-3.183135 1.15889,-1.104924 2.18259,-3.241619 2.49178,-5.200866 0.0691,-0.437928 0.1065,-1.329795 0.10735,-2.560558 6.5e-4,-1.038711 0.0558,-2.747139 0.1224,-3.796504 0.16059,-2.530239 0.10969,-4.640176 -0.14763,-6.119826 -0.58717,-3.376307 -1.31263,-5.266936 -2.75417,-7.17762 -1.80783,-2.396197 -3.01121,-3.202023 -5.23098,-3.502847 -0.35552,-0.04818 -0.531,-0.119084 -0.57453,-0.232134 -0.0345,-0.08952 -0.0848,-0.914474 -0.11182,-1.833225 -0.027,-0.918755 -0.0692,-1.909643 -0.0937,-2.201974 l -0.0445,-0.53151 h 0.28357 c 0.48091,0 3.23821,1.179511 5.19849,2.223797 1.30396,0.694652 2.95003,1.785341 3.69306,2.447035 1.93249,1.720946 3.52715,5.091116 4.20901,8.895344 0.40295,2.24814 0.46456,3.073815 0.46456,6.226266 0,3.133421 -0.064,4.143649 -0.3873,6.109668 -0.68897,4.19029 -2.21409,7.535761 -4.48152,9.830623 -1.03176,1.044237 -1.94254,1.580376 -4.36462,2.569266 -2.26391,0.924312 -7.50768,2.58612 -7.43381,2.355857 z"
           id="path15094" /><path
           id="rect17842"
           style="fill:#a18c9b;fill-opacity:0.992157;fill-rule:evenodd;stroke:url(#linearGradient15483);stroke-width:0.250272;stroke-opacity:1"
           d="m 49.345298,93.474201 h 62.259772 l -3.46725,4.657052 -56.079021,-0.404957 z"
           sodipodi:nodetypes="ccccc" /><path
           style="fill:#a38e9d;fill-opacity:1;fill-rule:evenodd;stroke:url(#linearGradient15481);stroke-width:0.174711;stroke-opacity:1"
           d="M 66.229305,94.970485 C 47.605714,94.1351 33.159768,91.701518 30.298452,88.91753 c -0.802652,-0.78096 -0.802652,-1.242106 0,-2.023066 1.632551,-1.588431 7.610308,-3.230542 15.888912,-4.364744 l 2.419818,-0.331523 1.047433,1.393137 c 1.256486,1.671185 2.433944,2.739693 3.973779,3.606088 l 1.143908,0.643624 25.853634,-0.225347 25.853634,-0.225346 1.13011,-0.8052 c 1.0455,-0.744915 2.60422,-2.221204 3.94732,-3.738569 l 0.55492,-0.626931 2.30933,0.322009 c 8.29173,1.156193 14.15563,2.77387 15.77842,4.352802 0.80265,0.78096 0.80265,1.242106 0,2.023066 -2.92308,2.844078 -17.30281,5.224424 -36.684604,6.072577 -5.342463,0.23379 -21.901831,0.221881 -27.285761,-0.01961 z"
           id="path10754" /><path
           style="fill:#ccb6c2;fill-opacity:1;fill-rule:evenodd;stroke:url(#linearGradient15479);stroke-width:0.349422;stroke-opacity:1"
           d="M 53.253675,86.269896 C 51.2639,85.001636 48.892418,81.877447 47.755837,79.027044 47.296193,77.874319 46.618265,75.505303 46.249328,73.762559 45.59932,70.69212 45.578505,70.008686 45.577542,51.706191 l -0.0011,-18.887745 1.108812,0.759046 c 2.874553,1.967801 9.514394,3.740701 18.337946,4.896408 5.520387,0.723057 27.946126,0.723057 33.466511,0 9.200709,-1.205105 15.789399,-3.016554 18.587669,-5.110358 l 1.25141,-0.93637 0.2219,6.327126 c 0.12205,3.479922 0.14339,9.698423 0.0474,13.818897 -0.24675,10.593455 -1.05006,15.987788 -3.3168,22.272827 -0.98261,2.724503 -1.7467,4.119569 -3.66488,6.691268 -1.3329,1.787005 -3.10183,3.724124 -3.93096,4.304708 l -1.5075,1.055607 -25.638633,0.211073 -25.638636,0.211073 z"
           id="path2871" /><path
           style="fill:#ccb6c2;fill-opacity:1;fill-rule:evenodd;stroke:url(#linearGradient15477);stroke-width:0.349422;stroke-opacity:1"
           d="m 116.27832,74.210862 c 0,-0.08711 0.2082,-0.857267 0.46267,-1.711474 0.43591,-1.463291 0.58054,-1.591102 2.50123,-2.210248 4.81788,-1.553074 6.8129,-3.214354 7.92867,-6.602318 0.80323,-2.438939 0.91964,-12.80819 0.18016,-16.047488 -0.99415,-4.354876 -3.77016,-8.017574 -6.69467,-8.833039 l -1.66456,-0.46414 v -1.996092 c 0,-1.097849 0.11023,-1.996092 0.24495,-1.996092 0.56612,0 5.45525,2.395049 6.90455,3.382346 3.00044,2.043977 4.77474,5.071224 5.69594,9.718205 0.58145,2.93316 0.54442,10.488975 -0.0649,13.249622 -0.96692,4.380511 -2.70257,7.630767 -5.06703,9.488728 -1.49637,1.175833 -10.42697,4.620627 -10.42697,4.02199 z"
           id="path2873" /><path
           style="fill:#937d8b;fill-opacity:1;fill-rule:evenodd;stroke:url(#linearGradient15475);stroke-width:0.349422;stroke-opacity:1"
           d="M 73.163807,38.37972 C 58.779838,37.652799 47.894571,34.958449 45.605196,31.558341 c -0.564806,-0.838831 -0.564806,-0.867195 0,-1.706026 0.835985,-1.241579 2.435075,-2.234613 5.11876,-3.178747 18.447643,-6.489969 62.063284,-4.426336 67.183974,3.178747 0.5648,0.838831 0.5648,0.86745 0,1.721405 -1.62186,2.452154 -8.21703,4.649086 -18.061362,6.016463 -3.083747,0.42833 -17.001648,1.246994 -19.446758,1.143875 -0.746211,-0.03147 -4.002414,-0.190923 -7.236003,-0.354338 z"
           id="path3926" /></g></g><g
       id="g29973"
       clip-path="url(#clipPath29975)"
       transform="matrix(0.44252322,-0.29290128,0.29213777,0.45901375,62.069163,90.337196)"
       style="opacity:1"><g
         inkscape:label="Clip"
         id="g29971"><path
           style="fill:none;stroke:none;stroke-width:0.264583px;stroke-linecap:butt;stroke-linejoin:miter;stroke-opacity:1"
           d="m 141.05197,150.45543 c 0,0 9.38367,0.25888 13.58278,2.08966 2.44312,1.06518 4.27852,3.19051 6.26898,4.96294 3.31056,2.94792 7.14496,5.58913 9.40346,9.40347 1.10903,1.87302 1.39129,4.13659 1.82845,6.26897 0.58128,2.83534 1.16407,5.72799 1.04483,8.61985 -0.12452,3.01987 -0.88422,6.00988 -1.82845,8.88104 -1.16838,3.55273 -2.86595,6.92873 -4.70173,10.18709 -2.06257,3.66088 -4.08648,7.47199 -7.0526,10.44829 -1.85813,1.86451 -4.25036,3.12467 -6.53018,4.44053 -2.42838,1.4016 -4.94459,2.68615 -7.57502,3.6569 -1.60484,0.59226 -4.96294,1.30604 -4.96294,1.30604 l -2.87328,-1.04483 0.52242,-2.08966"
           id="path27003"
           sodipodi:nodetypes="caaaaaaaaaaccc" /><path
           style="fill:none;stroke:none;stroke-width:0.264583px;stroke-linecap:butt;stroke-linejoin:miter;stroke-opacity:1"
           d="m 144.18646,157.24682 c 0,0 6.04404,-0.0395 8.61984,1.30604 2.01983,1.05513 3.28093,3.18128 4.70173,4.96294 1.76158,2.20899 3.5928,4.45393 4.70173,7.0526 0.9452,2.21497 1.44102,4.6477 1.56725,7.0526 0.16077,3.06304 -0.33775,6.15762 -1.04483,9.14226 -0.64135,2.70719 -1.92321,5.22134 -2.87328,7.83622 -0.79003,2.17441 -1.33535,4.4515 -2.35087,6.53018 -0.85888,1.75805 -1.91278,3.43459 -3.13449,4.96294 -1.23015,1.5389 -2.5034,3.14355 -4.17931,4.17932 -1.63951,1.01327 -3.6183,1.35012 -5.48536,1.82845 -0.94301,0.24159 -2.87328,0.52241 -2.87328,0.52241"
           id="path27005"
           sodipodi:nodetypes="caaaaaaaaaac" /><path
           style="fill:#e2e0b7;fill-opacity:1;fill-rule:evenodd;stroke:none;stroke-width:0.98724;stroke-opacity:1"
           d="M 310.4871,858.74103 C 253.93148,855.35158 198.40619,848.2858 149.32744,838.23294 135.65504,835.4324 132.91932,834.25648 126.58611,828.45776 103.46243,807.28561 88.187986,741.75783 90.188423,672.3107 92.1719,603.45231 108.0029,556.8129 132.19068,548.56863 c 2.5426,-0.86663 18.45178,-0.86838 65.65148,-0.007 47.64913,0.86935 91.28576,0.85419 185.59825,-0.0645 l 123.30258,-1.20107 6.18257,3.04367 c 7.054,3.47268 15.19778,11.63468 19.44875,19.49228 13.63578,25.20471 22.97878,81.78524 20.99759,127.15991 -2.9911,68.50462 -18.70361,118.07082 -42.75508,134.87391 -15.77894,11.02365 -72.78606,23.20177 -124.09536,26.50983 -14.05398,0.90609 -63.08208,1.14183 -76.03436,0.36558 z"
           id="path27814"
           transform="scale(0.26458333)" /><path
           style="fill:#e2e0b7;fill-opacity:1;fill-rule:evenodd;stroke:none;stroke-width:0.261207;stroke-opacity:1"
           d="m 16.665891,160.9852 c -4.309921,-4.07903 -8.2790284,-7.85767 -8.8202383,-8.39699 l -0.9840177,-0.98057 3.63861,-2.66904 c 2.001235,-1.46798 3.726118,-2.66905 3.833072,-2.66905 0.106954,0 3.579571,0.95617 7.716926,2.12482 l 7.522464,2.12482 -0.400537,0.77455 c -1.561684,3.01997 -3.131414,8.4185 -4.005237,13.77461 -0.289015,1.77152 -0.556834,3.24622 -0.595152,3.27711 -0.03832,0.0309 -3.595969,-3.28124 -7.90589,-7.36026 z"
           id="path27816" /><path
           style="fill:#e2e0b7;fill-opacity:1;fill-rule:evenodd;stroke:none;stroke-width:0.261207;stroke-opacity:1"
           d="m 135.45857,217.75679 -1.10262,-0.39045 1.23632,-1.61329 c 0.67997,-0.8873 1.63591,-2.38411 2.1243,-3.32625 l 0.88798,-1.71298 2.15732,-0.44406 c 5.16288,-1.06272 6.82874,-1.97487 9.4849,-5.19353 2.4453,-2.96314 3.89993,-5.61081 5.39423,-9.81843 0.75067,-2.11368 1.86323,-5.13604 2.47238,-6.71635 1.6778,-4.35269 2.19016,-7.09093 2.19941,-11.75433 0.0123,-6.18144 -0.89134,-8.66804 -5.24744,-14.44028 -3.17141,-4.20242 -4.5621,-5.64058 -6.08993,-6.29784 -1.47165,-0.63309 -3.99791,-1.06805 -6.21875,-1.07072 -1.07884,-0.001 -1.67806,-0.11379 -1.74972,-0.32848 -0.18336,-0.54938 -1.87369,-4.99873 -2.08391,-5.48536 -0.16963,-0.39266 -0.0481,-0.45711 0.86192,-0.45711 1.78913,0 7.11633,0.76912 9.18359,1.32588 2.29607,0.61839 4.09986,1.74048 6.65058,4.13712 1.01126,0.95017 2.9059,2.62787 4.21031,3.72822 3.36156,2.83567 5.96437,5.71095 6.8891,7.61025 0.50148,1.02999 1.08937,3.07807 1.62535,5.66237 2.03892,9.83095 0.64966,16.40604 -5.94733,28.14761 -5.1116,9.09781 -7.46162,11.3568 -16.4319,15.79544 -3.37098,1.66801 -3.81243,1.84366 -6.39433,2.54417 -2.26854,0.61549 -2.62728,0.62408 -4.11176,0.0984 z"
           id="path27818" /><path
           style="fill:#bab68a;fill-opacity:1;fill-rule:evenodd;stroke:none;stroke-width:0.263364;stroke-opacity:1"
           d="m 49.634459,145.45382 -6.665851,-0.1611 2.483357,-0.35589 c 7.11566,-1.01975 16.685911,-3.20693 21.776509,-4.97679 3.887565,-1.35161 8.1626,-3.5681 9.88134,-5.12322 2.565661,-2.32143 3.114911,-4.569 1.793594,-7.33952 -0.724918,-1.51999 -0.542866,-1.76014 1.838357,-2.42494 2.469571,-0.68948 10.685949,-0.67909 12.939593,0.0164 0.862638,0.2662 1.774326,0.67093 2.025969,0.89941 0.433632,0.3937 0.425363,0.4583 -0.158335,1.23656 -4.006894,5.34246 -1.7063,9.17568 7.073368,11.78555 2.72197,0.80913 4.77882,1.25837 17.19959,3.75653 11.70014,2.35322 11.59803,2.26118 2.74477,2.47426 -10.37312,0.24967 -64.832334,0.40856 -72.932261,0.2128 z"
           id="path28579" /></g></g><path
       style="color:#000000;fill:none;fill-rule:evenodd;stroke:none;stroke-width:0.778728;stroke-opacity:1;-inkscape-stroke:none"
       d="m 37.042677,144.10238 c -2.41124,-0.0752 -4.507583,1.04602 -6.279251,3.05378 -1.771664,2.00772 -3.226522,4.90196 -4.377669,8.3974 -2.302293,6.99088 -3.392471,16.39129 -3.325891,25.92509 0.06657,9.53388 1.290763,19.20021 3.625113,26.72139 1.167182,3.76065 2.611239,6.98501 4.33279,9.39016 1.721552,2.40505 3.724294,3.99374 6.002467,4.45922 26.853445,5.48668 67.152564,10.43807 96.084344,-0.005 4.84827,-1.74993 8.39041,-7.51657 10.71377,-15.15435 2.32341,-7.63771 3.42735,-17.15968 3.3633,-26.46164 -0.064,-9.30191 -1.29518,-18.38165 -3.65205,-25.13961 -1.17844,-3.37898 -2.63806,-6.17862 -4.38067,-8.13454 -1.74256,-1.95593 -3.77633,-3.06884 -6.07875,-3.0522 -15.66846,-5.60005 -47.462113,-5.19142 -36.870112,-17.9283 3.685504,-4.43185 -21.222484,-4.27943 -18.288033,-0.2879 7.708407,10.48549 -24.186557,16.57297 -40.869358,18.2162 z m -0.006,0.20722 c 32.005337,0.99605 64.025913,0.231 96.034973,0 2.23958,-0.0164 4.33307,1.42194 5.92917,2.98415 2.1612,2.11524 3.16774,4.70294 4.34027,8.06499 2.34504,6.72398 3.57615,15.78752 3.64006,25.0716 0.0639,9.28407 -1.03826,18.78951 -3.35284,26.39824 -2.31452,7.60876 -5.84195,13.30778 -10.58957,15.02142 -28.85872,10.41627 -69.141063,5.4804 -95.979622,-0.003 -2.215234,-0.45258 -4.177237,-2.00029 -5.879782,-4.37883 -1.702549,-2.3786 -3.141693,-5.58518 -4.304363,-9.33137 -2.325349,-7.49218 -3.54819,-17.14292 -3.614647,-26.6595 -0.06645,-9.51666 1.023034,-18.90083 3.313925,-25.85708 1.145443,-3.47821 2.591885,-6.34848 4.33578,-8.32477 1.743897,-1.97627 3.778412,-3.0588 6.126646,-2.9857 z"
       id="rect17350"
       sodipodi:nodetypes="cssssssssssscsscccsssssssssssscc" /><text
       xml:space="preserve"
       style="font-size:7.76111px;line-height:5.8;white-space:pre;inline-size:79.6392;fill:#060602;fill-opacity:1;fill-rule:evenodd;stroke-width:0.264583;paint-order:markers stroke fill"
       x="36.046616"
       y="118.58814"
       id="text4430"
       transform="matrix(1.7264241,0.01015978,0,1,-5.6799204,-32.142585)"><tspan
         x="36.046616"
         y="118.58814"
         id="tspan2843">Poczęstuj się kawą</tspan></text><text
       xml:space="preserve"
       transform="scale(0.26458333)"
       id="text6036"
       style="fill:#060602;fill-rule:evenodd;fill-opacity:1;white-space:pre;shape-inside:url(#rect6038)" /><ellipse
       style="fill:none;fill-rule:evenodd;stroke:#000000;stroke-width:0.306;stroke-opacity:1;stroke-dasharray:none;stroke-dashoffset:0;stroke-linejoin:miter"
       id="path967"
       cx="128.55223"
       cy="162.16789"
       rx="79.401154"
       ry="66.472054" /></g></svg>
