<?xml version="1.0" encoding="UTF-8" standalone="no"?>
<!-- Created with Inkscape (http://www.inkscape.org/) -->

<svg
   width="210mm"
   height="297mm"
   viewBox="0 0 210 297"
   version="1.1"
   id="svg3935"
   inkscape:version="1.2.2 (732a01da63, 2022-12-09)"
   sodipodi:docname="rysunek1.svg"
   xmlns:inkscape="http://www.inkscape.org/namespaces/inkscape"
   xmlns:sodipodi="http://sodipodi.sourceforge.net/DTD/sodipodi-0.dtd"
   xmlns:xlink="http://www.w3.org/1999/xlink"
   xmlns="http://www.w3.org/2000/svg"
   xmlns:svg="http://www.w3.org/2000/svg">
  <sodipodi:namedview
     id="namedview3937"
     pagecolor="#ffffff"
     bordercolor="#000000"
     borderopacity="0.25"
     inkscape:showpageshadow="2"
     inkscape:pageopacity="0.0"
     inkscape:pagecheckerboard="0"
     inkscape:deskcolor="#d1d1d1"
     inkscape:document-units="mm"
     showgrid="false"
     inkscape:zoom="0.71624579"
     inkscape:cx="397.21001"
     inkscape:cy="450.26443"
     inkscape:window-width="1920"
     inkscape:window-height="991"
     inkscape:window-x="-9"
     inkscape:window-y="-9"
     inkscape:window-maximized="1"
     inkscape:current-layer="layer1" />
  <defs
     id="defs3932">
    <clipPath
       id="clipPath16568">
      <use
         xlink:href="#g16564"
         id="use2" />
    </clipPath>
    <linearGradient
       id="linearGradient15505"
       x1="54.931"
       x2="70.867996"
       y1="29.868999"
       y2="29.868999"
       gradientUnits="userSpaceOnUse"
       xlink:href="#linearGradient15473" />
    <linearGradient
       id="linearGradient15473">
      <stop
         offset="0"
         id="stop6" />
      <stop
         stop-opacity="0"
         offset="1"
         id="stop8" />
    </linearGradient>
    <linearGradient
       id="linearGradient15503"
       x1="61.598"
       x2="76.961998"
       y1="28.659"
       y2="28.659"
       gradientUnits="userSpaceOnUse"
       xlink:href="#linearGradient15473" />
    <linearGradient
       id="linearGradient15501"
       x1="63.555"
       x2="69.155998"
       y1="30.763"
       y2="30.763"
       gradientUnits="userSpaceOnUse"
       xlink:href="#linearGradient15473" />
    <linearGradient
       id="linearGradient15499"
       x1="66.523003"
       x2="71.587997"
       y1="30.118"
       y2="30.118"
       gradientUnits="userSpaceOnUse"
       xlink:href="#linearGradient15473" />
    <linearGradient
       id="linearGradient15497"
       x1="54.826"
       x2="64.907997"
       y1="30.177999"
       y2="30.177999"
       gradientUnits="userSpaceOnUse"
       xlink:href="#linearGradient15473" />
    <linearGradient
       id="linearGradient15495"
       x1="29.320999"
       x2="131.17999"
       y1="87.905998"
       y2="87.905998"
       gradientUnits="userSpaceOnUse"
       xlink:href="#linearGradient15473" />
    <linearGradient
       id="linearGradient15493"
       x1="44.834999"
       x2="119.1"
       y1="58.547001"
       y2="58.547001"
       gradientUnits="userSpaceOnUse"
       xlink:href="#linearGradient15473" />
    <linearGradient
       id="linearGradient15491"
       x1="44.848"
       x2="118.66"
       y1="30.705"
       y2="30.705"
       gradientUnits="userSpaceOnUse"
       xlink:href="#linearGradient15473" />
    <linearGradient
       id="linearGradient15489"
       x1="115.15"
       x2="132.89999"
       y1="54.494999"
       y2="54.494999"
       gradientUnits="userSpaceOnUse"
       xlink:href="#linearGradient15473" />
    <linearGradient
       id="linearGradient15487"
       x1="117"
       x2="127.78"
       y1="54.646999"
       y2="54.646999"
       gradientUnits="userSpaceOnUse"
       xlink:href="#linearGradient15473" />
    <linearGradient
       id="linearGradient15485"
       x1="115.83"
       x2="132.60001"
       y1="54.334999"
       y2="54.334999"
       gradientUnits="userSpaceOnUse"
       xlink:href="#linearGradient15473" />
    <linearGradient
       id="linearGradient15483"
       x1="49.117001"
       x2="111.85"
       y1="95.803001"
       y2="95.803001"
       gradientUnits="userSpaceOnUse"
       xlink:href="#linearGradient15473" />
    <linearGradient
       id="linearGradient15481"
       x1="29.608999"
       x2="130.89"
       y1="88.675003"
       y2="88.675003"
       gradientUnits="userSpaceOnUse"
       xlink:href="#linearGradient15473" />
    <linearGradient
       id="linearGradient15479"
       x1="45.402"
       x2="118.83"
       y1="59.791"
       y2="59.791"
       gradientUnits="userSpaceOnUse"
       xlink:href="#linearGradient15473" />
    <linearGradient
       id="linearGradient15477"
       x1="116.1"
       x2="132.42999"
       y1="54.314999"
       y2="54.314999"
       gradientUnits="userSpaceOnUse"
       xlink:href="#linearGradient15473" />
    <linearGradient
       id="linearGradient15475"
       x1="45.007"
       x2="118.51"
       y1="30.77"
       y2="30.77"
       gradientUnits="userSpaceOnUse"
       xlink:href="#linearGradient15473" />
    <clipPath
       id="clipPath29975">
      <use
         xlink:href="#g29971"
         id="use26" />
    </clipPath>
  </defs>
  <g
     inkscape:label="Warstwa 1"
     inkscape:groupmode="layer"
     id="layer1">
    <g
       transform="matrix(1.1296686,0,0,1.2389413,-39.985152,-56.936496)"
       id="g81"
       style="stroke-width:0.999963;stroke-dasharray:none">
      <g
         transform="matrix(0.60819,0,0,0.66542,47.278,143.69)"
         clip-path="url(#clipPath16568)"
         id="g64"
         style="stroke-width:1.57187;stroke-dasharray:none">
        <g
           id="g16564"
           style="stroke-width:1.57187;stroke-dasharray:none">
          <path
             d="m 58.562,31.316 c 0.44631,0.01274 0.89278,0.02776 1.3392,0.03874 0.43264,-0.0041 0.86586,0.03709 1.2979,-5.8e-4 0.38368,-0.05618 0.7687,-0.0948 1.1544,-0.11342 0.31458,-0.01108 0.62924,-0.01253 0.94391,-0.01447 0.50353,-0.01627 1.0064,-0.01485 1.5093,0.02231 0.43524,0.06596 0.87014,0.13385 1.3055,0.1983 0.40276,0.04327 0.80726,0.05801 1.2112,0.07048 0.41508,0.0029 0.82992,-0.01366 1.2449,8.71e-4 0.56778,0.02344 1.1359,0.0221 1.7017,0.09432 0.08357,0.01019 0.16713,0.02044 0.25069,0.03066 l -3.2189,-3.1949 c -0.08333,-0.0079 -0.16666,-0.01584 -0.24998,-0.02379 -0.57008,-0.03726 -1.141,-0.0392 -1.7113,-0.07152 -0.42396,-0.01142 -0.84804,-0.01198 -1.272,-0.02631 -0.39393,-0.01031 -0.78797,-0.03012 -1.1791,-0.09868 -0.43687,-0.06567 -0.87465,-0.13628 -1.3141,-0.15733 -0.51089,-0.01235 -1.0219,-0.009 -1.5328,-0.01923 -0.32285,1.31e-4 -0.64657,-0.0058 -0.96858,0.02954 -0.3772,0.04383 -0.75392,0.10549 -1.1328,0.1139 -0.42467,-0.0029 -0.84939,0.005 -1.274,-0.0099 -0.46504,-0.01387 -0.92971,-0.03326 -1.3937,-0.07849 l 3.2886,3.2092 z"
             fill="none"
             stroke="url(#linearGradient15505)"
             stroke-width="0.25027"
             id="path31"
             style="stroke:url(#linearGradient15505);stroke-width:1.57187;stroke-dasharray:none" />
          <path
             d="m 65.166,30.56 c 0.16564,-0.05314 0.33017,-0.11295 0.49691,-0.1594 1.7475,-0.48676 3.5318,-0.73064 5.3148,-0.80068 0.50658,-0.0199 1.0136,-0.0062 1.5204,-0.0094 1.1337,0.02663 2.2657,0.13822 3.3897,0.33876 0.23103,0.04122 0.46078,0.09452 0.69117,0.14179 l -3.1042,-3.1065 c -1.2967,-0.15076 -2.5968,-0.25078 -3.8992,-0.21725 -0.5006,0.01656 -1.0014,0.02376 -1.5018,0.04964 -2.0729,0.10718 -4.1384,0.3739 -6.2,0.6739 l 3.2922,3.0892 z"
             fill="none"
             stroke="url(#linearGradient15503)"
             stroke-width="0.25027"
             id="path33"
             style="stroke:url(#linearGradient15503);stroke-width:1.57187;stroke-dasharray:none" />
          <path
             d="m 63.827,28.279 c 0.10426,0.24031 0.14053,0.32932 0.27523,0.60036 0.18857,0.37944 0.38833,0.74864 0.58106,1.1243 0.2991,0.583 0.28098,0.55099 0.56217,1.1174 l 3.6025,2.1121 c -0.28923,-0.56148 -0.57531,-1.126 -0.85839,-1.6931 -0.11317,-0.22672 -0.29367,-0.58408 -0.39982,-0.84092 -0.02224,-0.0538 -0.0379,-0.11206 -0.05686,-0.1681 l -3.7059,-2.252 z"
             fill="none"
             stroke="url(#linearGradient15501)"
             stroke-width="0.25027"
             id="path35"
             style="stroke:url(#linearGradient15501);stroke-width:1.57187;stroke-dasharray:none" />
          <path
             d="m 66.771,27.293 c 0.35778,0.93874 0.63307,1.9282 0.90263,2.9171 0.04304,0.16928 0.08608,0.33857 0.12912,0.50785 l 3.5814,2.2493 c -0.04716,-0.17476 -0.09431,-0.34951 -0.14147,-0.52426 -0.16479,-0.59559 -0.32845,-1.1913 -0.48952,-1.7887 -0.04448,-0.16497 -0.08914,-0.32986 -0.13592,-0.49368 -0.03312,-0.116 -0.0735,-0.22828 -0.10375,-0.34568 -0.02107,-0.0818 -0.03332,-0.16724 -0.04997,-0.25087 l -3.6926,-2.2711 z"
             fill="none"
             stroke="url(#linearGradient15499)"
             stroke-width="0.25027"
             id="path37"
             style="stroke:url(#linearGradient15499);stroke-width:1.57187;stroke-dasharray:none" />
          <path
             d="m 58.085,29.748 c 0.11275,0.05504 0.22747,0.10327 0.33825,0.16512 0.33373,0.18636 1.1898,0.72096 1.4636,0.89353 0.92199,0.58107 1.8394,1.1756 2.7587,1.7642 0.72302,0.47228 1.4421,0.95521 2.171,1.411 0,0 -3.1054,-3.313 -3.1054,-3.313 -0.67982,-0.4101 -1.3533,-0.8387 -2.0273,-1.2656 -1.5917,-1.001 -3.1688,-2.0432 -4.7665,-3.027 0,0 3.1676,3.3717 3.1676,3.3717 z"
             fill="none"
             stroke="url(#linearGradient15497)"
             stroke-width="0.25027"
             id="path39"
             style="stroke:url(#linearGradient15497);stroke-width:1.57187;stroke-dasharray:none" />
          <ellipse
             cx="80.249001"
             cy="87.905998"
             rx="50.803001"
             ry="7.5929999"
             fill="none"
             stroke="url(#linearGradient15495)"
             stroke-width="0.25027"
             id="ellipse41"
             style="stroke:url(#linearGradient15495);stroke-width:1.57187;stroke-dasharray:none" />
          <path
             d="m 44.957,29.472 h 73.449 c 1.1322,24.599 2.1186,48.934 -12.065,57.696 l -51.429,0.4531 c -15.33,-6.8348 -7.4511,-37.915 -9.9539,-58.149 z"
             fill="#8546e7"
             fill-rule="evenodd"
             stroke="url(#linearGradient15493)"
             stroke-width="0.2151"
             id="path43"
             style="stroke:url(#linearGradient15493);stroke-width:1.57187;stroke-dasharray:none" />
          <ellipse
             cx="81.757004"
             cy="30.705"
             rx="36.783001"
             ry="8.3016996"
             fill="#bc99f2"
             fill-rule="evenodd"
             stroke="url(#linearGradient15491)"
             stroke-width="0.25027"
             id="ellipse45"
             style="stroke:url(#linearGradient15491);stroke-width:1.57187;stroke-dasharray:none" />
          <path
             d="m 118.65,33.844 h 0.75375 c 0,0 6.6241,2.4186 9.1958,5.2645 1.4521,1.607 2.5203,3.903 3.1658,6.2769 0.98796,3.6337 1.1632,7.6886 0.9045,11.541 -0.19278,2.8717 -0.7531,5.7913 -1.809,8.3017 -0.83964,1.9963 -2.0651,3.7543 -3.4672,5.062 -1.2034,1.1223 -2.6758,1.6241 -4.0702,2.2273 -2.6566,1.1492 -8.1405,2.6322 -8.1405,2.6322"
             fill="none"
             stroke="url(#linearGradient15489)"
             stroke-width="0.25027px"
             id="path47"
             style="stroke:url(#linearGradient15489);stroke-width:1.57187;stroke-dasharray:none" />
          <path
             d="m 117.03,70.442 c 0,0 5.6229,-1.2571 7.839,-3.4422 1.0454,-1.0308 1.8217,-2.6134 2.2613,-4.2521 0.47808,-1.7825 0.22734,-3.7774 0.30149,-5.6694 0.078,-1.9894 0.34467,-3.9981 0.15075,-5.9732 -0.20262,-2.0638 -0.63963,-4.1278 -1.3567,-5.9732 -0.41397,-1.0653 -1.013,-2.0024 -1.6583,-2.8347 -0.80474,-1.038 -1.6888,-2.0392 -2.7135,-2.6322 -0.98654,-0.57097 -3.1658,-0.80992 -3.1658,-0.80992"
             fill="none"
             stroke="url(#linearGradient15487)"
             stroke-width="0.25027px"
             id="path49"
             style="stroke:url(#linearGradient15487);stroke-width:1.57187;stroke-dasharray:none" />
          <path
             d="m 115.89,74.653 c 0.36952,-1.1519 0.88313,-2.8696 0.9868,-3.3003 0.0737,-0.30625 0.15815,-0.59254 0.18763,-0.63619 0.0295,-0.04365 0.54257,-0.2152 1.1402,-0.38122 3.1114,-0.86429 5.4819,-1.9839 6.7397,-3.1831 1.1589,-1.1049 2.1826,-3.2416 2.4918,-5.2009 0.0691,-0.43793 0.1065,-1.3298 0.10735,-2.5606 6.5e-4,-1.0387 0.0558,-2.7471 0.1224,-3.7965 0.16059,-2.5302 0.10969,-4.6402 -0.14763,-6.1198 -0.58717,-3.3763 -1.3126,-5.2669 -2.7542,-7.1776 -1.8078,-2.3962 -3.0112,-3.202 -5.231,-3.5028 -0.35552,-0.04818 -0.531,-0.11908 -0.57453,-0.23213 -0.0345,-0.08952 -0.0848,-0.91447 -0.11182,-1.8332 -0.027,-0.91876 -0.0692,-1.9096 -0.0937,-2.202 l -0.0445,-0.53151 h 0.28357 c 0.48091,0 3.2382,1.1795 5.1985,2.2238 1.304,0.69465 2.95,1.7853 3.6931,2.447 1.9325,1.7209 3.5272,5.0911 4.209,8.8953 0.40295,2.2481 0.46456,3.0738 0.46456,6.2263 0,3.1334 -0.064,4.1436 -0.3873,6.1097 -0.68897,4.1903 -2.2141,7.5358 -4.4815,9.8306 -1.0318,1.0442 -1.9425,1.5804 -4.3646,2.5693 -2.2639,0.92431 -7.5077,2.5861 -7.4338,2.3559 z"
             fill="#9caff3"
             fill-rule="evenodd"
             stroke="url(#linearGradient15485)"
             stroke-width="0.087355"
             id="path51"
             style="stroke:url(#linearGradient15485);stroke-width:1.57187;stroke-dasharray:none" />
          <path
             d="m 49.345,93.474 h 62.26 l -3.4672,4.6571 -56.079,-0.40496 z"
             fill="#a18c9b"
             fill-opacity="0.99216"
             fill-rule="evenodd"
             stroke="url(#linearGradient15483)"
             stroke-width="0.25027"
             id="path53"
             style="stroke:url(#linearGradient15483);stroke-width:1.57187;stroke-dasharray:none" />
          <path
             d="m 66.229,94.97 c -18.624,-0.83538 -33.07,-3.269 -35.931,-6.053 -0.80265,-0.78096 -0.80265,-1.2421 0,-2.0231 1.6326,-1.5884 7.6103,-3.2305 15.889,-4.3647 l 2.4198,-0.33152 1.0474,1.3931 c 1.2565,1.6712 2.4339,2.7397 3.9738,3.6061 l 1.1439,0.64362 51.707,-0.45069 1.1301,-0.8052 c 1.0455,-0.74492 2.6042,-2.2212 3.9473,-3.7386 l 0.55492,-0.62693 2.3093,0.32201 c 8.2917,1.1562 14.156,2.7739 15.778,4.3528 0.80265,0.78096 0.80265,1.2421 0,2.0231 -2.9231,2.8441 -17.303,5.2244 -36.685,6.0726 -5.3425,0.23379 -21.902,0.22188 -27.286,-0.01961 z"
             fill="#a38e9d"
             fill-rule="evenodd"
             stroke="url(#linearGradient15481)"
             stroke-width="0.17471"
             id="path55"
             style="stroke:url(#linearGradient15481);stroke-width:1.57187;stroke-dasharray:none" />
          <path
             d="m 53.254,86.27 c -1.9898,-1.2683 -4.3613,-4.3924 -5.4978,-7.2429 -0.45964,-1.1527 -1.1376,-3.5217 -1.5065,-5.2645 -0.65001,-3.0704 -0.67082,-3.7539 -0.67179,-22.056 l -0.0011,-18.888 1.1088,0.75905 c 2.8746,1.9678 9.5144,3.7407 18.338,4.8964 5.5204,0.72306 27.946,0.72306 33.467,0 9.2007,-1.2051 15.789,-3.0166 18.588,-5.1104 l 1.2514,-0.93637 0.2219,6.3271 c 0.12205,3.4799 0.14339,9.6984 0.0474,13.819 -0.24675,10.593 -1.0501,15.988 -3.3168,22.273 -0.98261,2.7245 -1.7467,4.1196 -3.6649,6.6913 -1.3329,1.787 -3.1018,3.7241 -3.931,4.3047 l -1.5075,1.0556 -51.277,0.42215 z"
             fill="#ccb6c2"
             fill-rule="evenodd"
             stroke="url(#linearGradient15479)"
             stroke-width="0.34942"
             id="path57"
             style="stroke:url(#linearGradient15479);stroke-width:1.57187;stroke-dasharray:none" />
          <path
             d="m 116.28,74.211 c 0,-0.08711 0.2082,-0.85727 0.46267,-1.7115 0.43591,-1.4633 0.58054,-1.5911 2.5012,-2.2102 4.8179,-1.5531 6.8129,-3.2144 7.9287,-6.6023 0.80323,-2.4389 0.91964,-12.808 0.18016,-16.047 -0.99415,-4.3549 -3.7702,-8.0176 -6.6947,-8.833 l -1.6646,-0.46414 v -1.9961 c 0,-1.0978 0.11023,-1.9961 0.24495,-1.9961 0.56612,0 5.4552,2.395 6.9046,3.3823 3.0004,2.044 4.7747,5.0712 5.6959,9.7182 0.58145,2.9332 0.54442,10.489 -0.0649,13.25 -0.96692,4.3805 -2.7026,7.6308 -5.067,9.4887 -1.4964,1.1758 -10.427,4.6206 -10.427,4.022 z"
             fill="#ccb6c2"
             fill-rule="evenodd"
             stroke="url(#linearGradient15477)"
             stroke-width="0.34942"
             id="path59"
             style="stroke:url(#linearGradient15477);stroke-width:1.57187;stroke-dasharray:none" />
          <path
             d="M 73.164,38.38 C 58.78,37.65308 47.895,34.9587 45.605,31.5586 c -0.56481,-0.83883 -0.56481,-0.8672 0,-1.706 0.83598,-1.2416 2.4351,-2.2346 5.1188,-3.1787 18.448,-6.49 62.063,-4.4263 67.184,3.1787 0.5648,0.83883 0.5648,0.86745 0,1.7214 -1.6219,2.4522 -8.217,4.6491 -18.061,6.0165 -3.0837,0.42833 -17.002,1.247 -19.447,1.1439 -0.74621,-0.03147 -4.0024,-0.19092 -7.236,-0.35434 z"
             fill="#937d8b"
             fill-rule="evenodd"
             stroke="url(#linearGradient15475)"
             stroke-width="0.34942"
             id="path61"
             style="stroke:url(#linearGradient15475);stroke-width:1.57187;stroke-dasharray:none" />
        </g>
      </g>
      <g
         transform="matrix(0.44252,-0.2929,0.29214,0.45901,62.069,90.337)"
         clip-path="url(#clipPath29975)"
         id="g79"
         style="stroke-width:1.8611;stroke-dasharray:none">
        <g
           id="g29971"
           style="stroke-width:1.8611;stroke-dasharray:none"
           inkscape:label="g29971">
          <path
             d="m 141.05,150.46 c 0,0 9.3837,0.25888 13.583,2.0897 2.4431,1.0652 4.2785,3.1905 6.269,4.9629 3.3106,2.9479 7.145,5.5891 9.4035,9.4035 1.109,1.873 1.3913,4.1366 1.8284,6.269 0.58128,2.8353 1.1641,5.728 1.0448,8.6198 -0.12452,3.0199 -0.88422,6.0099 -1.8284,8.881 -1.1684,3.5527 -2.866,6.9287 -4.7017,10.187 -2.0626,3.6609 -4.0865,7.472 -7.0526,10.448 -1.8581,1.8645 -4.2504,3.1247 -6.5302,4.4405 -2.4284,1.4016 -4.9446,2.6862 -7.575,3.6569 -1.6048,0.59226 -4.9629,1.306 -4.9629,1.306 l -2.8733,-1.0448 0.52242,-2.0897"
             fill="none"
             id="path66"
             style="stroke-width:1.8611;stroke-dasharray:none" />
          <path
             d="m 144.19,157.25 c 0,0 6.044,-0.0395 8.6198,1.306 2.0198,1.0551 3.2809,3.1813 4.7017,4.9629 1.7616,2.209 3.5928,4.4539 4.7017,7.0526 0.9452,2.215 1.441,4.6477 1.5672,7.0526 0.16077,3.063 -0.33775,6.1576 -1.0448,9.1423 -0.64135,2.7072 -1.9232,5.2213 -2.8733,7.8362 -0.79003,2.1744 -1.3354,4.4515 -2.3509,6.5302 -0.85888,1.758 -1.9128,3.4346 -3.1345,4.9629 -1.2302,1.5389 -2.5034,3.1436 -4.1793,4.1793 -1.6395,1.0133 -3.6183,1.3501 -5.4854,1.8284 -0.94301,0.24159 -2.8733,0.52241 -2.8733,0.52241"
             fill="none"
             id="path68"
             style="stroke-width:1.8611;stroke-dasharray:none" />
          <path
             transform="scale(0.26458)"
             d="m 310.49,858.74 c -56.556,-3.3894 -112.08,-10.455 -161.16,-20.508 -13.672,-2.8005 -16.408,-3.9765 -22.741,-9.7752 -23.124,-21.172 -38.398,-86.7 -36.398,-156.15 1.9835,-68.858 17.814,-115.5 42.002,-123.74 2.5426,-0.86663 18.452,-0.86838 65.651,-0.007 47.649,0.86935 91.286,0.85419 185.6,-0.0645 l 123.3,-1.2011 6.1826,3.0437 c 7.054,3.4727 15.198,11.635 19.449,19.492 13.636,25.205 22.979,81.785 20.998,127.16 -2.9911,68.505 -18.704,118.07 -42.755,134.87 -15.779,11.024 -72.786,23.202 -124.1,26.51 -14.054,0.90609 -63.082,1.1418 -76.034,0.36558 z"
             fill="#e2e0b7"
             fill-rule="evenodd"
             id="path70"
             style="stroke-width:7.03415;stroke-dasharray:none" />
          <path
             d="m 16.666,160.99 c -4.3099,-4.079 -8.279,-7.8577 -8.8202,-8.397 l -0.98402,-0.98057 3.6386,-2.669 c 2.0012,-1.468 3.7261,-2.669 3.8331,-2.669 0.107,0 3.5796,0.95617 7.7169,2.1248 l 7.5225,2.1248 -0.40054,0.77455 c -1.5617,3.02 -3.1314,8.4185 -4.0052,13.775 -0.28902,1.7715 -0.55683,3.2462 -0.59515,3.2771 -0.03832,0.0309 -3.596,-3.2812 -7.9059,-7.3603 z"
             fill="#e2e0b7"
             fill-rule="evenodd"
             id="path72"
             style="stroke-width:1.8611;stroke-dasharray:none" />
          <path
             d="m 135.46,217.76 -1.1026,-0.39045 1.2363,-1.6133 c 0.67997,-0.8873 1.6359,-2.3841 2.1243,-3.3262 l 0.88798,-1.713 2.1573,-0.44406 c 5.1629,-1.0627 6.8287,-1.9749 9.4849,-5.1935 2.4453,-2.9631 3.8999,-5.6108 5.3942,-9.8184 0.75067,-2.1137 1.8632,-5.136 2.4724,-6.7164 1.6778,-4.3527 2.1902,-7.0909 2.1994,-11.754 0.0123,-6.1814 -0.89134,-8.668 -5.2474,-14.44 -3.1714,-4.2024 -4.5621,-5.6406 -6.0899,-6.2978 -1.4716,-0.63309 -3.9979,-1.068 -6.2188,-1.0707 -1.0788,-0.001 -1.6781,-0.11379 -1.7497,-0.32848 -0.18336,-0.54938 -1.8737,-4.9987 -2.0839,-5.4854 -0.16963,-0.39266 -0.0481,-0.45711 0.86192,-0.45711 1.7891,0 7.1163,0.76912 9.1836,1.3259 2.2961,0.61839 4.0999,1.7405 6.6506,4.1371 1.0113,0.95017 2.9059,2.6279 4.2103,3.7282 3.3616,2.8357 5.9644,5.711 6.8891,7.6102 0.50148,1.03 1.0894,3.0781 1.6254,5.6624 2.0389,9.831 0.64966,16.406 -5.9473,28.148 -5.1116,9.0978 -7.4616,11.357 -16.432,15.795 -3.371,1.668 -3.8124,1.8437 -6.3943,2.5442 -2.2685,0.61549 -2.6273,0.62408 -4.1118,0.0984 z"
             fill="#e2e0b7"
             fill-rule="evenodd"
             id="path74"
             style="stroke-width:1.8611;stroke-dasharray:none" />
          <path
             d="m 49.634,145.45 -6.6659,-0.1611 2.4834,-0.35589 c 7.1157,-1.0198 16.686,-3.2069 21.777,-4.9768 3.8876,-1.3516 8.1626,-3.5681 9.8813,-5.1232 2.5657,-2.3214 3.1149,-4.569 1.7936,-7.3395 -0.72492,-1.52 -0.54287,-1.7601 1.8384,-2.4249 2.4696,-0.68948 10.686,-0.67909 12.94,0.0164 0.86264,0.2662 1.7743,0.67093 2.026,0.89941 0.43363,0.3937 0.42536,0.4583 -0.15834,1.2366 -4.0069,5.3425 -1.7063,9.1757 7.0734,11.786 2.722,0.80913 4.7788,1.2584 17.2,3.7565 11.7,2.3532 11.598,2.2612 2.7448,2.4743 -10.373,0.24967 -64.832,0.40856 -72.932,0.2128 z"
             fill="#bab68a"
             fill-rule="evenodd"
             id="path76"
             style="stroke-width:1.8611;stroke-dasharray:none" />
        </g>
      </g>
    </g>
    <text
       fill="#060602"
       fill-rule="evenodd"
       font-family="sans-serif"
       font-size="33.3879px"
       stroke-width="0.37574"
       style="line-height:5.8;font-variant-ligatures:normal;font-variant-caps:normal;font-variant-numeric:normal;font-variant-east-asian:normal;white-space:pre;stroke-width:1.183;stroke-dasharray:none;paint-order:markers stroke fill"
       xml:space="preserve"
       id="text87"><textPath
         xlink:href="#path3896"
         id="textPath85"
         style="stroke-width:1.183"><tspan
           font-family="sans-serif"
           font-size="33.3879px"
           stroke-width="0.37574"
           style="font-variant-ligatures:normal;font-variant-caps:normal;font-variant-numeric:normal;font-variant-east-asian:normal;stroke-width:1.183;stroke-dasharray:none"
           id="tspan83">Poczęstuj się kawą</tspan></textPath></text>
    <ellipse
       id="path3896"
       transform="matrix(-0.69771313,0.71637727,-0.65817794,-0.7528624,0,0)"
       cx="17.886795"
       cy="-185.797"
       rx="89.358574"
       ry="89.746132"
       fill="none"
       style="stroke-width:1.1849;stroke-dasharray:none" />
  </g>
</svg>
